<svg height="512" viewBox="0 0 128 128" width="512" xmlns="http://www.w3.org/2000/svg"><g><g><path d="m123.182 31.603-32.797 43.142-18.622-50.893 28.852-16.969z" fill="#f7502f"/><g fill="#3ba9fd"><g><path d="m94.337 81.782.9 8.787-9.32-3.486z"/><path d="m76.597 83.598.899 8.787 8.421-5.302z"/></g><g><path d="m97.872 101.905-.89 8.789-8.426-5.293z"/><path d="m80.13 100.109-.89 8.788 9.316-3.496z"/></g><path d="m28.119 28.425a3.665 3.665 0 0 1 -3.671 3.675h-9.689a4.042 4.042 0 0 1 0-8.084 4.577 4.577 0 0 1 .488.026 4.321 4.321 0 0 1 8.625.384 2.78 2.78 0 0 1 -.026.375 3.346 3.346 0 0 1 .6-.053 3.674 3.674 0 0 1 3.673 3.677z"/><path d="m56.436 17.675a3.666 3.666 0 0 1 -3.672 3.671h-9.689a4.042 4.042 0 0 1 0-8.084 4.563 4.563 0 0 1 .488.026 4.321 4.321 0 0 1 8.625.384 2.626 2.626 0 0 1 -.026.375 3.354 3.354 0 0 1 .6-.053 3.675 3.675 0 0 1 3.674 3.681z"/></g></g><g fill="#220401"><path d="m105.8 54.473a1.748 1.748 0 0 0 -2.452.334l-1.771 2.329a1.75 1.75 0 1 0 2.786 2.118l1.771-2.329a1.75 1.75 0 0 0 -.334-2.452z"/><path d="m124.475 30.424-22.568-24.724a1.747 1.747 0 0 0 -2.179-.329l-28.852 16.973a1.75 1.75 0 0 0 -.756 2.11l10.307 28.169c-15.006 20.505-39.551 46.124-74.827 67.377a1.75 1.75 0 1 0 1.8 3c34.632-20.863 59.094-45.943 74.46-66.459l6.556 17.916a20.693 20.693 0 0 0 -4.263 10.1l-6.943-2.6a1.75 1.75 0 0 0 -2.354 1.818l.9 8.787a1.751 1.751 0 0 0 2.674 1.3l5.907-3.719a31.865 31.865 0 0 0 2 6.832 11.825 11.825 0 0 1 .779 5.45l-6.053-3.8a1.751 1.751 0 0 0 -2.672 1.306l-.89 8.789a1.75 1.75 0 0 0 2.355 1.815l5.641-2.117a21.93 21.93 0 0 1 -2.051 3.655 1.75 1.75 0 1 0 2.8 2.1 25.2 25.2 0 0 0 3.2-6.151l6.609 4.151a1.751 1.751 0 0 0 2.672-1.306l.89-8.788a1.751 1.751 0 0 0 -2.356-1.815l-6.647 2.494a15.349 15.349 0 0 0 -1.034-7.1 28.881 28.881 0 0 1 -1.791-6.008l6.838 2.557a1.75 1.75 0 0 0 2.354-1.817l-.9-8.787a1.749 1.749 0 0 0 -2.673-1.3l-5.623 3.54a18.574 18.574 0 0 1 3.976-8.01l.009-.015.011-.011 8.866-11.662a1.751 1.751 0 0 0 -2.787-2.119l-4.72 6.21 5.8-38.515 21.06 3.173-12.927 17a1.75 1.75 0 0 0 2.786 2.118l14.713-19.353a1.75 1.75 0 0 0 -.097-2.235zm-43.21 75.844.322-3.178 3.047 1.91zm17.072-96.015-2.337 15.483-19.1-2.878zm-23.917 15.769 20.48 3.088a146.031 146.031 0 0 1 -12.007 20.068zm19.733 11.99-4.478 29.7-5.326-14.557a175.886 175.886 0 0 0 9.804-15.143zm-15.203 51.388-.325-3.177 3.375 1.262zm16.9 15.133-.322 3.177-3.049-1.91zm-2.963-19.77.325 3.177-3.37-1.26zm8.914-73.99 16.763 18.362-19.1-2.879z"/><path d="m14.759 33.846h9.689a5.427 5.427 0 0 0 1.028-10.754 6.072 6.072 0 0 0 -11.628-.759 5.793 5.793 0 0 0 .911 11.513zm0-8.084a2.836 2.836 0 0 1 .294.015 1.748 1.748 0 0 0 1.938-1.594 2.571 2.571 0 0 1 5.131.239.875.875 0 0 1 -.008.125 1.749 1.749 0 0 0 2.047 1.971 1.566 1.566 0 0 1 .287-.024 1.926 1.926 0 0 1 0 3.852h-9.689a2.292 2.292 0 0 1 0-4.584z"/><path d="m43.075 23.1h4.661a1.75 1.75 0 0 0 0-3.5h-4.661a2.292 2.292 0 0 1 0-4.584 2.822 2.822 0 0 1 .294.015 1.75 1.75 0 0 0 1.939-1.594 2.57 2.57 0 0 1 5.13.239.875.875 0 0 1 -.008.125 1.75 1.75 0 0 0 2.048 1.971 1.562 1.562 0 0 1 .286-.024 1.931 1.931 0 0 1 1.595 3.006 1.75 1.75 0 1 0 2.9 1.958 5.432 5.432 0 0 0 -3.468-8.366 6.072 6.072 0 0 0 -11.628-.759 5.793 5.793 0 0 0 .912 11.513z"/></g></g></svg>