<svg id="Capa_1" enable-background="new 0 0 512 512" height="512" viewBox="0 0 512 512" width="512" xmlns="http://www.w3.org/2000/svg"><path d="m155.799 368.226 128.258-232.468-128.258-11.758z" fill="#ffe07d"/><path d="m155.799 368.226-128.259-232.468h128.259z" fill="#a4ccff"/><path d="m155.799 135.758h128.258l-128.258-128.258z" fill="#b3e59f"/><path d="m155.799 135.758h-128.259l128.259-128.258z" fill="#ff8086"/><path d="m155.799 368.226-128.259-232.468h48.097z" fill="#8bb3ea"/><path d="m27.54 135.758h48.097l80.162-128.258z" fill="#e5646e"/><path d="m114.871 403.875c-10.66-5.33-23.202 2.421-23.202 14.339v12.248c0 11.918 12.542 19.669 23.202 14.34l40.927-20.464z" fill="#e5646e"/><path d="m196.725 444.802-40.927-20.463 40.927-20.463c10.66-5.33 23.202 2.422 23.202 14.34v12.248c.001 11.917-12.542 19.668-23.202 14.338z" fill="#ff8086"/><path d="m301.651 404.977c-3.769-11.306-18.118-14.694-26.546-6.267l-8.66 8.66c-8.427 8.427-5.04 22.777 6.266 26.546l43.41 14.47z" fill="#e5646e"/><path d="m330.591 491.797-14.47-43.41 43.41 14.47c11.306 3.769 14.694 18.119 6.267 26.546l-8.66 8.66c-8.428 8.428-22.778 5.04-26.547-6.266z" fill="#ff8086"/><path d="m448.928 351.347c5.33-10.66-2.421-23.202-14.339-23.202h-12.248c-11.918 0-19.669 12.542-14.34 23.202l20.464 40.927z" fill="#e5646e"/><path d="m408.001 433.201 20.463-40.927 20.463 40.927c5.33 10.66-2.422 23.202-14.34 23.202h-12.248c-11.916 0-19.667-12.542-14.338-23.202z" fill="#ff8086"/><path d="m484.46 384.774h-43.978l15.036-30.073c3.674-7.348 3.289-15.907-1.03-22.896-4.319-6.988-11.802-11.161-20.018-11.161h-12.248c-8.216 0-15.699 4.172-20.018 11.161-4.319 6.988-4.704 15.547-1.03 22.895l15.036 30.073h-14.095c-21.274 0-41.275 8.284-56.317 23.327l-26.401 26.401-10.633-31.897c-2.598-7.793-8.922-13.574-16.917-15.461-7.997-1.887-16.238.455-22.047 6.263l-8.66 8.66c-5.809 5.809-8.15 14.051-6.263 22.046 1.888 7.996 7.667 14.32 15.461 16.918l31.897 10.632-25.949 25.949c-12.5 12.504-29.121 19.389-46.8 19.389-34.542 0-62.971-26.602-65.919-60.392l29.804 14.902c3.349 1.675 6.949 2.506 10.538 2.506 4.285 0 8.554-1.186 12.357-3.536 6.988-4.319 11.161-11.803 11.161-20.018v-12.248c0-8.215-4.172-15.699-11.161-20.018-6.988-4.318-15.548-4.704-22.896-1.03l-30.073 15.036v-42.046l127.325-230.776c1.614-2.925 1.099-6.564-1.264-8.926l-128.256-128.257c-1.407-1.407-3.314-2.197-5.304-2.197s-3.897.79-5.303 2.197l-128.258 128.258c-2.362 2.362-2.877 6.001-1.264 8.926l127.325 230.776v42.047l-30.073-15.036c-7.348-3.674-15.908-3.29-22.896 1.03-6.987 4.318-11.159 11.802-11.159 20.017v12.248c0 8.215 4.172 15.699 11.161 20.018 3.804 2.351 8.072 3.536 12.357 3.536 3.588 0 7.189-.831 10.538-2.506l30.284-15.142c2.867 42.182 38.078 75.631 80.976 75.631 21.686 0 42.074-8.445 57.408-23.779l25.95-25.95 10.632 31.897c2.598 7.793 8.923 13.573 16.918 15.461 1.822.43 3.656.64 5.472.64 6.153 0 12.089-2.418 16.574-6.903l8.661-8.661c5.809-5.809 8.15-14.05 6.263-22.046-1.888-7.996-7.667-14.32-15.461-16.918l-31.897-10.632 26.401-26.401c12.209-12.209 28.443-18.934 45.711-18.934h14.094l-15.036 30.073c-3.674 7.348-3.289 15.907 1.03 22.896 4.319 6.988 11.802 11.161 20.018 11.161h12.248c8.215 0 15.699-4.172 20.018-11.161s4.704-15.548 1.03-22.896l-15.036-30.073h43.978c4.142 0 7.5-3.358 7.5-7.5s-3.36-7.5-7.502-7.5zm-214.982 35.894c-.695-2.942.133-5.856 2.271-7.994l8.66-8.66c1.642-1.642 3.742-2.511 5.961-2.511.67 0 1.351.08 2.033.241 2.942.694 5.178 2.738 6.134 5.605l9.727 29.18-29.18-9.727c-2.869-.956-4.912-3.192-5.606-6.134zm-69.399-10.085c2.705-1.352 5.73-1.215 8.302.374 2.571 1.589 4.046 4.235 4.046 7.258v12.248c0 3.023-1.475 5.669-4.047 7.258-2.571 1.589-5.597 1.726-8.301.374l-27.51-13.755zm-36.781-267.325h48.61c4.142 0 7.5-3.358 7.5-7.5s-3.358-7.5-7.5-7.5h-48.61v-102.652l102.652 102.652h-21.976c-4.142 0-7.5 3.358-7.5 7.5s3.358 7.5 7.5 7.5h27.379l-108.055 195.849zm-15-15h-102.651l102.651-102.652zm-108.053 15h108.054v195.848zm71.273 294.836c-2.704 1.351-5.73 1.215-8.301-.374-2.572-1.589-4.047-4.235-4.047-7.258v-12.248c0-3.023 1.475-5.668 4.046-7.258 1.397-.863 2.928-1.298 4.469-1.298 1.295 0 2.598.307 3.833.924l27.51 13.755zm251.247 38.012c.695 2.942-.133 5.855-2.271 7.993l-8.661 8.661c-2.138 2.138-5.053 2.964-7.993 2.271-2.942-.694-5.178-2.738-6.134-5.606l-9.727-29.18 29.179 9.727c2.869.956 4.912 3.192 5.607 6.134zm52.2-136.414c1.589-2.572 4.235-4.047 7.258-4.047h12.248c3.023 0 5.668 1.475 7.258 4.046 1.589 2.572 1.726 5.598.374 8.302l-13.755 27.511-13.755-27.511c-1.354-2.704-1.217-5.73.372-8.301zm26.764 105.165c-1.589 2.571-4.235 4.046-7.258 4.046h-12.248c-3.023 0-5.669-1.475-7.258-4.047-1.589-2.571-1.726-5.597-.374-8.301l13.755-27.51 13.755 27.51c1.353 2.704 1.217 5.73-.372 8.302z"/></svg>