<?xml version="1.0" encoding="iso-8859-1"?>
<!-- Generator: Adobe Illustrator 19.0.0, SVG Export Plug-In . SVG Version: 6.00 Build 0)  -->
<svg version="1.1" id="Capa_1" xmlns="http://www.w3.org/2000/svg" xmlns:xlink="http://www.w3.org/1999/xlink" x="0px" y="0px"
	 viewBox="0 0 511.999 511.999" style="enable-background:new 0 0 511.999 511.999;" xml:space="preserve">
<g>
	<g>
		<ellipse cx="378.767" cy="95.709" rx="6.534" ry="12.124"/>
	</g>
</g>
<g>
	<g>
		<ellipse transform="matrix(0.9328 -0.3605 0.3605 0.9328 -15.4083 159.2973)" cx="419.337" cy="120.955" rx="11.678" ry="6.294"/>
	</g>
</g>
<g>
	<g>
		<ellipse transform="matrix(0.9991 -0.0417 0.0417 0.9991 -6.9643 16.6383)" cx="395.332" cy="175.251" rx="6.534" ry="12.123"/>
	</g>
</g>
<g>
	<g>
		<ellipse transform="matrix(0.9169 -0.3991 0.3991 0.9169 -30.087 152.3404)" cx="350.804" cy="148.425" rx="12.124" ry="6.534"/>
	</g>
</g>
<g>
	<g>
		<path d="M248.285,157.601c-3.047-2.909-7.875-2.799-10.785,0.248c-17.206,18.017-35.473,33.371-54.295,45.637
			c-3.529,2.301-4.526,7.026-2.225,10.555c2.301,3.531,7.025,4.528,10.555,2.227c19.805-12.907,38.982-29.017,56.999-47.883
			C251.443,165.34,251.332,160.511,248.285,157.601z"/>
	</g>
</g>
<g>
	<g>
		<path d="M167.744,221.635c-1.869-3.774-6.444-5.318-10.222-3.451c-30.339,15.026-61.625,22.644-92.989,22.644
			c-24.194,0-39.387-4.79-39.539-4.838c-4-1.293-8.297,0.893-9.6,4.893c-1.306,4.006,0.883,8.312,4.888,9.618
			c0.7,0.229,17.437,5.585,44.251,5.585c33.733,0,67.297-8.152,99.76-24.228C168.068,229.987,169.612,225.41,167.744,221.635z"/>
	</g>
</g>
<g>
	<g>
		<path d="M215.201,242.346c-2.414-3.453-7.169-4.295-10.623-1.882c-32.163,22.485-67.39,36.837-101.873,41.506
			c-4.174,0.565-7.1,4.407-6.536,8.582c0.567,4.183,4.418,7.101,8.582,6.536c36.88-4.993,74.421-20.249,108.567-44.12
			C216.772,250.554,217.614,245.799,215.201,242.346z"/>
	</g>
</g>
<g>
	<g>
		<path d="M499.572,189.692c-0.058-0.279-3.475-17.812-14.697-75.521c-0.805-4.135-4.808-6.836-8.944-6.031
			c-4.136,0.805-6.836,4.809-6.032,8.943l1.512,7.774c-11.484,8.547-20.72,19.417-27.234,31.733l-47.24-25.751l34.836-63.778
			c9.335,3.391,19.263,5.318,29.496,5.637l2.79,14.351c0.805,4.135,4.81,6.836,8.944,6.032c4.134-0.805,6.836-4.809,6.032-8.944
			c-1.999-10.28,1.096,5.639-14.724-75.732c0,0,0,0,0,0.001c-1.231-6.372-7.999-10.082-14.042-7.659
			c-0.002,0.001-0.004,0.001-0.006,0.002l0.013,0.033c-0.679,0.244-169.44,66.749-172.602,69.695
			c-5.659,5.273-4.022,3.773-8.307,125.059c-0.148,4.21,3.144,7.744,7.354,7.893c4.154,0.158,7.743-3.101,7.893-7.354
			c0.707-19.995,1.395-39.489,2.001-56.62c16.324-6.006,30.286-16.187,40.797-29.138l48.817,26.611l-63.7,116.622
			c-9.373-3.869-19.393-6.242-29.7-6.945l0.705-19.967c0.148-4.211-3.144-7.744-7.354-7.893c-4.195-0.164-7.744,3.143-7.893,7.354
			c-2.283,64.658-2.946,83.336-4.093,115.895c-5.308,9.545-11.199,18.604-17.672,27.165l-18.852-32.987
			c-6.037-10.564-21.111-10.646-27.355-0.363l-16.558,27.265c-6.228,10.255,0.731,23.459,12.731,24.095l33.218,1.759
			c-12.107,12.685-25.747,24.035-40.889,34.026l-16.431-35.56c-5.097-11.031-20.102-12.442-27.222-2.721l-18.848,25.736
			c-7.1,9.697-1.273,23.439,10.605,25.103l24.153,3.386c-10.364,5.169-21.277,9.83-32.755,13.956l-6.91-26.738
			c-2.59-10.019-15.086-13.754-22.715-6.522l-16.89,16.013c-7.521,7.133-4.723,19.719,5.132,22.975l10.937,3.615
			c-43.597,11.18-77.478,10.868-77.855,10.869c-9.943-0.155-10.939,15.261,0.76,15.261c6.672,0,44.459-0.648,91.26-14.181
			l-5.895,20.308c-2.599,8.951,4.238,17.544,13.142,17.544c2.697,0,2.432-0.313,25.764-5.5c10.125-2.3,14.111-14.563,7.309-22.378
			l-15.73-18.075c14.361-5.348,27.991-11.564,40.819-18.599l-3.563,34.618c-0.978,9.501,6.543,17.514,15.782,17.514
			c5.558,0,6.963-1.99,35.581-13.803c11.034-4.709,13.07-19.495,3.687-27.001l-30.263-24.207c14.2-9.52,27.109-20.091,39.108-32.205
			l-0.455,27.999c-0.196,12.111,12.694,19.941,23.341,14.269l28.152-15.002c10.588-5.642,11.34-20.55,1.344-27.219l-33.07-22.063
			c7.559-9.741,14.38-20.061,20.432-30.941c234.183-162.275,219.142-151.587,220.357-153.074
			C499.505,194.35,499.992,191.859,499.572,189.692z M94.173,444.907l13.122-12.441l4.741,18.345L94.173,444.907z M139.158,492.193
			l-17.633,4.004L126.807,478L139.158,492.193z M139.041,420.404c-0.471-0.067-0.696-0.595-0.414-0.98
			c19.733-26.911,19.289-26.975,19.912-25.63l14.498,31.375L139.041,420.404z M219.405,470.688c0.372,0.299,0.295,0.869-0.144,1.055
			l-29.34,12.518c-0.458,0.196-0.908-0.161-0.86-0.634l3.539-34.381L219.405,470.688z M197.297,371.934
			c-0.477-0.028-0.745-0.536-0.497-0.941c17.987-29.62,16.546-27.564,17.085-27.564c0.527,0-1.259-2.837,17.69,30.321
			L197.297,371.934z M281.698,415.1c0.397,0.263,0.368,0.839-0.053,1.063c-29.218,15.531-28.164,15.087-28.437,15.087
			c-1.307,0-0.28-0.353-0.065-35.201L281.698,415.1z M452.72,28.714l5.551,28.555c-6.567-0.487-12.957-1.786-19.07-3.805
			L452.72,28.714z M439.258,21.532l-14.061,25.744c-6.311-3.566-12.152-8.007-17.351-13.262
			C417.16,30.312,429.329,25.475,439.258,21.532z M287.206,122.732c0.511-14.427,0.926-26.177,1.192-33.683l25.343,13.815
			C306.501,111.163,297.51,117.982,287.206,122.732z M322.672,90.357l-23.743-12.943c8.483-3.402,20.105-8.044,33.22-13.274
			C330.542,73.501,327.291,82.351,322.672,90.357z M336.072,97.661c6.86-12,11.131-25.582,12.207-39.948
			c14.506-5.778,29.903-11.904,44.383-17.662c7.27,8.402,15.8,15.341,25.213,20.632l-34.331,62.855L336.072,97.661z
			 M282.293,261.853c7.908,0.59,15.608,2.359,22.872,5.181l-24.649,45.129C281.206,292.604,281.95,271.516,282.293,261.853z
			 M293.889,319.505l24.907-45.599c6.765,4.263,12.915,9.545,18.189,15.737C323.787,298.787,309.45,308.722,293.889,319.505z
			 M435.437,221.422c-20.18,13.982-47.915,33.2-85.87,59.5c-6.703-8.128-14.644-15.002-23.448-20.427l63.505-116.267l48.515,26.447
			C432.683,186.918,431.688,204.404,435.437,221.422z M449.204,211.883c-1.561-11.327-0.692-22.745,2.597-33.761l25.819,14.075
			C471.793,196.233,462.812,202.455,449.204,211.883z M457.589,163.902c4.332-8.239,10.097-15.722,17.126-22.059
			c0.967,4.97,5.182,26.632,6.834,35.119L457.589,163.902z"/>
	</g>
</g>
<g>
</g>
<g>
</g>
<g>
</g>
<g>
</g>
<g>
</g>
<g>
</g>
<g>
</g>
<g>
</g>
<g>
</g>
<g>
</g>
<g>
</g>
<g>
</g>
<g>
</g>
<g>
</g>
<g>
</g>
</svg>
