<?xml version="1.0" encoding="iso-8859-1"?>
<!-- Generator: Adobe Illustrator 19.0.0, SVG Export Plug-In . SVG Version: 6.00 Build 0)  -->
<svg version="1.1" id="Capa_1" xmlns="http://www.w3.org/2000/svg" xmlns:xlink="http://www.w3.org/1999/xlink" x="0px" y="0px"
	 viewBox="0 0 512 512" style="enable-background:new 0 0 512 512;" xml:space="preserve">
<path style="fill:#B6E4EA;" d="M66.949,93.865l44.596-73.691c5.067-8.412,15.995-11.123,24.407-6.056l167.843,101.114
	c7.011,4.224,10.232,12.686,7.807,20.503l-79.344,255.591c-3.962,12.764-20.061,16.759-29.53,7.327L13.114,209.789
	c-5.799-5.775-6.907-14.764-2.683-21.775l41.284-68.529"/>
<path style="fill:#93D6F4;" d="M303.796,115.231L135.953,14.118c-8.412-5.067-19.34-2.357-24.407,6.056l-10.204,16.861
	c5.664-5.01,14.135-6.016,20.955-1.908L290.14,136.241c7.011,4.223,10.232,12.686,7.807,20.502l-76.345,245.929
	c4.833-1.828,8.916-5.741,10.657-11.347l79.344-255.591C314.028,127.918,310.806,119.455,303.796,115.231z"/>
<path style="fill:#FDFDFD;" d="M8.726,202.569c0.844,2.66,2.309,5.148,4.39,7.221l189.613,188.863
	c9.47,9.431,25.569,5.437,29.53-7.327l79.344-255.591c0.871-2.805,1.002-5.69,0.504-8.435L8.726,202.569z"/>
<path style="fill:#F9A1C1;" d="M158.717,165.355l59.12,238.289c6.396-0.943,12.244-5.3,14.421-12.317l79.344-255.591
	c0.871-2.805,1.002-5.69,0.504-8.435L158.717,165.355z"/>
<path style="fill:#F98DA8;" d="M312.107,127.3l-24.098,5.978c-0.131,0.822-0.314,1.643-0.567,2.457l-75.629,243.627l6.024,24.282
	c6.396-0.943,12.244-5.3,14.421-12.317l79.344-255.591C312.473,132.93,312.605,130.044,312.107,127.3z"/>
<g>
	<polygon style="fill:#F6A124;" points="265.233,445.878 223.196,472.902 267.618,495.795 265.233,445.878 223.196,472.902 
		267.618,495.795 	"/>
	<polygon style="fill:#F6A124;" points="265.233,445.878 262.849,395.962 307.271,418.855 265.233,445.878 262.849,395.962 
		307.271,418.855 	"/>
	<polygon style="fill:#F6A124;" points="391.924,454.957 371.193,500.429 420.937,495.647 391.924,454.957 371.193,500.429 
		420.937,495.647 	"/>
	<polygon style="fill:#F6A124;" points="391.924,454.957 362.912,414.267 412.657,409.487 391.924,454.957 362.912,414.267 
		412.657,409.487 	"/>
</g>
<path d="M158.886,98.236c-3.729-2.247-8.569-1.044-10.813,2.683l-2.681,4.451l-4.452-2.682c-3.728-2.246-8.568-1.044-10.813,2.683
	c-2.245,3.727-1.044,8.568,2.683,10.813l4.452,2.682l-2.682,4.452c-2.245,3.727-1.044,8.568,2.683,10.813
	c1.272,0.766,2.673,1.131,4.058,1.131c2.671,0,5.277-1.359,6.756-3.814l2.682-4.451l4.451,2.682
	c1.272,0.766,2.673,1.131,4.058,1.131c2.671,0,5.276-1.358,6.756-3.814c2.245-3.727,1.044-8.568-2.683-10.813l-4.451-2.682
	l2.682-4.451C163.813,105.323,162.613,100.482,158.886,98.236z"/>
<path d="M508.36,481.473c-38.846-24.802-73.26-32.112-104.514-33.672l15.979-35.046c0.475-1.043,0.71-2.157,0.71-3.266
	c0-1.615-0.496-3.217-1.464-4.576c-1.634-2.292-4.369-3.537-7.168-3.269l-49.743,4.781c-2.802,0.269-5.247,2.014-6.414,4.574
	c-0.475,1.043-0.71,2.157-0.71,3.266c0,1.615,0.496,3.217,1.464,4.576l20.518,28.777c-6.082,0.168-12.05,0.431-17.906,0.691
	c-26.03,1.164-50.124,2.235-74.162-5.741l26.581-17.087c2.261-1.454,3.618-3.954,3.618-6.625c0-0.126-0.003-0.252-0.009-0.378
	c-0.134-2.811-1.758-5.338-4.261-6.627l-44.422-22.893c-2.503-1.291-5.503-1.146-7.869,0.375c-2.262,1.454-3.618,3.955-3.618,6.625
	c0,0.126,0.003,0.252,0.009,0.378l1.533,32.08c-8.413-5.708-16.909-12.927-25.564-22.026c0.025-0.019,0.048-0.039,0.074-0.059
	c0.276-0.214,0.553-0.428,0.82-0.652c0.18-0.151,0.353-0.311,0.528-0.467c0.249-0.222,0.498-0.445,0.737-0.676
	c0.174-0.168,0.342-0.341,0.512-0.515c0.23-0.234,0.457-0.472,0.678-0.714c0.164-0.182,0.325-0.367,0.483-0.554
	c0.212-0.248,0.419-0.5,0.622-0.756c0.153-0.194,0.304-0.39,0.451-0.588c0.195-0.263,0.383-0.53,0.569-0.801
	c0.14-0.204,0.278-0.409,0.413-0.617c0.18-0.279,0.351-0.565,0.52-0.853c0.124-0.211,0.25-0.42,0.368-0.634
	c0.167-0.304,0.322-0.613,0.478-0.925c0.104-0.209,0.213-0.415,0.312-0.627c0.162-0.348,0.309-0.703,0.456-1.059
	c0.077-0.186,0.161-0.369,0.233-0.558c0.205-0.533,0.395-1.073,0.567-1.623c0.005-0.017,0.013-0.034,0.018-0.05l79.345-255.591
	c0.154-0.497,0.292-0.998,0.415-1.503c0.028-0.118,0.049-0.236,0.077-0.354c0.053-0.227,0.098-0.454,0.144-0.682
	c0.034-0.167,0.074-0.334,0.103-0.502c0.026-0.15,0.044-0.301,0.068-0.453c0.007-0.044,0.013-0.088,0.02-0.132
	c0.203-1.28,0.305-2.56,0.313-3.833c0-0.063,0.001-0.126,0.001-0.189c-0.003-8.806-4.535-17.198-12.407-21.939L140.018,7.369
	c-12.12-7.302-27.92-3.38-35.212,8.725L60.21,89.785c-2.253,3.723-1.061,8.566,2.661,10.82c3.723,2.253,8.566,1.061,10.82-2.661
	l44.605-73.706c2.818-4.678,8.916-6.19,13.593-3.372L299.731,121.98c0.101,0.061,0.195,0.13,0.293,0.194l-143.303,35.553
	c-0.042,0.01-0.081,0.026-0.123,0.037L17.007,192.397c0.058-0.105,0.11-0.212,0.172-0.316l41.284-68.529
	c2.245-3.727,1.044-8.568-2.683-10.813c-3.727-2.245-8.568-1.045-10.813,2.683L3.684,183.95c-4.74,7.868-4.826,17.399-0.718,25.183
	c0.034,0.064,0.068,0.128,0.103,0.192c0.601,1.115,1.284,2.191,2.057,3.223c0.222,0.297,0.447,0.59,0.682,0.877
	c0.151,0.185,0.303,0.369,0.459,0.549c0.414,0.48,0.84,0.95,1.289,1.397l189.613,188.863c4.709,4.69,10.851,7.286,17.262,7.476
	c12.927,14.533,25.581,25.195,38.078,32.982l-33.573,21.582c-2.262,1.454-3.618,3.954-3.618,6.625c0,0.126,0.003,0.252,0.008,0.378
	c0.134,2.811,1.758,5.338,4.261,6.627l44.422,22.893c1.135,0.586,2.374,0.875,3.609,0.875c1.485,0,2.967-0.42,4.261-1.251
	c2.261-1.454,3.618-3.954,3.618-6.625c0-0.126-0.003-0.252-0.009-0.378l-1.915-40.102c28.763,11.292,57.027,10.037,86.242,8.733
	c6.503-0.29,13.041-0.581,19.645-0.741l-15.433,33.849c-0.475,1.043-0.71,2.157-0.71,3.266c0,1.615,0.496,3.217,1.464,4.576
	c1.486,2.085,3.882,3.305,6.413,3.305c0.25,0,0.503-0.012,0.755-0.036l49.743-4.781c2.802-0.269,5.247-2.014,6.414-4.574
	c0.475-1.043,0.71-2.157,0.71-3.266c0-1.615-0.496-3.217-1.464-4.576l-19.449-27.278c28.034,1.948,57.951,9.232,91.978,30.957
	c1.314,0.839,2.781,1.24,4.232,1.24c2.6,0,5.144-1.286,6.647-3.64C513.103,488.686,512.027,483.815,508.36,481.473z
	 M291.531,419.607l-19.08,12.265l-1.082-22.657L291.531,419.607z M302.73,137.743l-51.623,166.294l-26.372,84.954
	c-0.118,0.377-0.259,0.738-0.414,1.091c-0.042,0.097-0.087,0.191-0.132,0.286c-0.136,0.285-0.282,0.562-0.441,0.829
	c-0.038,0.063-0.07,0.129-0.109,0.19c-0.166,0.266-0.352,0.515-0.541,0.761l-54.931-221.019L302.73,137.743z M152.874,174.922
	l53.823,216.564l-184.8-184.069L152.874,174.922z M238.934,472.15l19.08-12.266l1.082,22.657L238.934,472.15z M399.828,418.634
	l-9.41,20.639l-13.168-18.469L399.828,418.634z M384.022,491.28l9.41-20.638l13.168,18.469L384.022,491.28z"/>
<g>
</g>
<g>
</g>
<g>
</g>
<g>
</g>
<g>
</g>
<g>
</g>
<g>
</g>
<g>
</g>
<g>
</g>
<g>
</g>
<g>
</g>
<g>
</g>
<g>
</g>
<g>
</g>
<g>
</g>
</svg>
