<svg height="512" viewBox="0 0 60 60" width="512" xmlns="http://www.w3.org/2000/svg"><g id="076---Kite-Flying" fill="none"><g id="Icons" transform="translate(1 1)"><path id="Shape" d="m27.82 10.74c-3.48 6.96-3.4 17.4-2.14 24.97.0606016.4037651-.1303439.8038222-.4823741 1.0106399-.3520301.2068177-.7944372.1788552-1.1176259-.0706399-6.11-4.879-14.921-9.883-22.74-10.33-.03273966-.0077694-.06637016-.0111324-.1-.01-.28234485-.0088839-.5477613-.1367696-.73065668-.3520527s-.26620604-.4978782-.22934332-.7779473c2.827-20.93 3.089-22.921 3.23-23.91.03997738-.30574267.21876622-.5759456.48453951-.73228283s.58880694-.18132399.87546049-.06771717c.984.394 19.9 7.86 22.44 8.88.26123.10604406.4655591.31743308.562672.58211317.0971128.26468013.0779855.55805673-.052672.80788683z" fill="#0377bc"/><path id="Shape" d="m24.89 11.87c-3.358 6.716-3.333 16.2-2.34 23.61-4.62-3.41-12.98-8.69-21.21-9.16-.03273966-.0077694-.06637016-.0111324-.1-.01-.28234485-.0088839-.5477613-.1367696-.73065668-.3520527s-.26620604-.4978782-.22934332-.7779473c.209-1.547-.336 2.5 3.1-23.01 22.065 8.725 19.669 7.776 21 8.31.26123.1060441.4655591.3174331.562672.5821132.0971128.2646801.0779855.5580567-.052672.8078868z" fill="#02a9f4"/><path id="Shape" d="m58 8c0 2.209139-1.790861 4-4 4h-12c-2.209139 0-4-1.790861-4-4s1.790861-4 4-4c.1137005-.0033139.2274722.00337855.34.02.8402483-2.40683053 3.1107157-4.01903821 5.66-4.01903821s4.8197517 1.61220768 5.66 4.01903821c.1125278-.01662145.2262995-.0233139.34-.02 2.209139 0 4 1.790861 4 4z" fill="#cfd8dc"/><path id="Shape" d="m55 8c0 2.209139-1.790861 4-4 4h-9c-2.209139 0-4-1.790861-4-4s1.790861-4 4-4c.1137005-.0033139.2274722.00337855.34.02.6604377-1.89101618 2.2209629-3.32774972 4.16-3.83 1.9390371.50225028 3.4995623 1.93898382 4.16 3.83.1125278-.01662145.2262995-.0233139.34-.02 2.209139 0 4 1.790861 4 4z" fill="#f5f5f5"/><path id="Shape" d="m21.123 49.88-7-7c-.2711002-.2819976-.3377518-.7030599-.167-1.055l1.332-2.911c.1236135-.2974273.3836806-.5165214.6977768-.5878437s.6432807.0139696.8832232.2288437l8.582 8.582c.2148741.2399425.300166.569127.2288437.8832232s-.2904164.5741633-.5878437.6977768l-2.911 1.332c-.3533357.1713921-.7761426.1034553-1.058-.17z" fill="#f44335"/><path id="Shape" d="m17.588 53.416-7-7c-.2822255-.2707624-.7032632-.337011-1.055-.166l-2.915 1.328c-.29706499.1237105-.51586225.3835765-.5871616.6973731-.07129936.3137966.01372176.6426947.2281616.8826269l8.583 8.583c.2399322.2144398.5688303.299461.8826269.2281616.3137966-.0712993.5736626-.2900966.6973731-.5871616l1.332-2.911c.171011-.3517368.1047624-.7727745-.166-1.055z" fill="#f44335"/><path id="Rectangle-path" d="m10.854 45.646h10v5h-10z" fill="#f5f5f5" transform="matrix(.707 .707 -.707 .707 38.688 2.891)"/></g><g id="Outline" fill="#000"><path id="Shape" d="m24.457 38.438c.354585.2817203.7951429.4331621 1.248.429l.455.776c2.882 8.047 11.884 9.957 19.766 9.957 4.4420682-.0316746 8.8677264-.5429722 13.2-1.525.5253041-.1400148.8425217-.6740435.7141902-1.2023234-.1283315-.5282798-.6551945-.8572617-1.1861902-.7406766-.229.057-20.327 4.789-28.235-3.333 6.6 2.425 17.767-.689 24.036-3.362.4891522-.2271415.7100664-.8012535.499346-1.2977009-.2107203-.4964475-.7771544-.7363644-1.280346-.5422991-.206.087-20.562 8.613-25.853.89-.012-.017-.031-.026-.044-.042s-.343-.58-.359-.607c.2247729-.3878769.3108254-.8407103.244-1.284-.727-4.606-1.979-16.2 2.053-24.371.2523201-.5019861.2829093-1.0866935.0843463-1.6122677-.1985629-.5255742-.6081333-.94398846-1.1293463-1.1537323l-22.435-8.878c-.57223643-.22022068-1.21362721-.1677687-1.74248122.1424975-.52885401.31026621-.88756511.84455049-.97451878 1.4515025l-3.23 23.91c-.06666829.5488452.09129037 1.1013399.438 1.532.917 1.109 1.445.393 5.5 1.337-1.3 6.189 4.335 6.215 3.877 8.361-.187.875-1.787.893-3 1.315-.78715467.2592754-1.43837626.8218187-1.80930744 1.5629302s-.43092861 1.5995665-.16669256 2.3850698c.9 2.823 3.9 2.942 6.593 3.263l-.4.4c-.839-.164-1.054.072-4.113 1.47-.59612255.2595929-1.02824195.7935249-1.15786047 1.4306667-.12961852.6371417.05954437 1.2974659.50686047 1.7693333l8.583 8.583c.4715363.4478347 1.1319081.6374505 1.7692031.5079999.6372951-.1294505 1.1713535-.5616849 1.4307969-1.1579999 1.422-3.116 1.633-3.278 1.471-4.114l2.58-2.581c.839.166 1.113-.1 4.123-1.479.5966648-.2590867 1.0292435-.7931786 1.1587296-1.4306487s-.0604336-1.298007-.5087296-1.7693513l-8.583-8.583c-.4713443-.448296-1.1318812-.6382157-1.7693513-.5087296s-1.171562.5620648-1.4306487 1.1587296c-1.34 2.927-1.64 3.281-1.474 4.118-.662.662-.413.479-.659.417-2.152-.539-5.577-.094-6.214-2.1-.10864138-.2889112-.09184396-.6100452.046346-.8860455.13818996-.2760002.38524532-.4818469.681654-.5679545 1.176-.408 3.807-.469 4.3-2.787.62-2.909-2.684-4-3.513-5.219-.53425356-.9182174-.67146097-2.0144323-.38-3.036 8.839 2.707 16.161 9.004 16.289 9.004zm-3.714 12.477-2.121 2.121-5.658-5.658 2.121-2.121zm-4.194 7.119-8.515-8.547 2.842-1.368 6.959 6.959zm.609-17.775 8.515 8.547-2.889 1.321-6.912-6.912zm-8.426-12.753c1.231-3.235 2.593-6.627 4.077-10.659l10.8 18.441c-4.5055261-3.381464-9.5297886-6.0096021-14.877-7.782zm4.241-14.337-5.958-10.169 18.162 7.21c-5.67.683-9.221 1.434-12.204 2.959zm12.37 21.122-11.356-19.391c3.08-1.545 6.961-2.231 13.652-2.958-3.279 7.19-3.029 16.271-2.296 22.349zm-20.059-30.291 5.963 10.178c-2.791 1.852-5.189 4.6-8.588 9.251zm-2.284 22.378c3.108-4.357 5.322-7.178 7.522-9.116-.952 2.544-3.722 9.694-3.73 9.726-1.24745775-.2954098-2.51483121-.4992858-3.792-.61z"/><path id="Shape" d="m49 19c.5522847 0 1-.4477153 1-1s-.4477153-1-1-1h-12c-.5522847 0-1 .4477153-1 1s.4477153 1 1 1z"/><path id="Shape" d="m33 17h-2c-.5522847 0-1 .4477153-1 1s.4477153 1 1 1h2c.5522847 0 1-.4477153 1-1s-.4477153-1-1-1z"/><path id="Shape" d="m32 23c0 .5522847.4477153 1 1 1h20c.5522847 0 1-.4477153 1-1s-.4477153-1-1-1h-20c-.5522847 0-1 .4477153-1 1z"/><path id="Shape" d="m34 28c0 .5522847.4477153 1 1 1h22c.5522847 0 1-.4477153 1-1s-.4477153-1-1-1h-22c-.5522847 0-1 .4477153-1 1z"/><path id="Shape" d="m55.328 4.011c-1.1571935-2.44683859-3.6213201-4.00727282-6.328-4.00727282s-5.1708065 1.56043423-6.328 4.00727282c-2.6902721.17873776-4.7543298 2.4583426-4.6658447 5.15309336.0884852 2.69475074 2.2976422 4.83403984 4.9938447 4.83590664h12c2.6962025-.0018668 4.9053595-2.1411559 4.9938447-4.83590664.0884851-2.69475076-1.9755726-4.9743556-4.6658447-5.15309336zm-.328 7.989h-12c-1.6568542-.0223675-2.9818675-1.3836458-2.9595-3.0405.0223675-1.65685425 1.3836458-2.98186753 3.0405-2.9595.0276287-.00204945.0553713-.00204945.083 0 .4844238.08666353.9598956-.19200282 1.121-.657.7055096-1.99912899 2.5950329-3.33603636 4.715-3.33603636s4.0094904 1.33690737 4.715 3.33603636c.1701965.45648764.637442.7308221 1.119.657.0552607-.00400932.1107393-.00400932.166 0 1.6568542 0 3 1.34314575 3 3 0 1.6568542-1.3431458 3-3 3z"/></g></g></svg>