<?xml version="1.0" encoding="iso-8859-1"?>
<!-- Generator: Adobe Illustrator 19.0.0, SVG Export Plug-In . SVG Version: 6.00 Build 0)  -->
<svg version="1.1" id="Capa_1" xmlns="http://www.w3.org/2000/svg" xmlns:xlink="http://www.w3.org/1999/xlink" x="0px" y="0px"
	 viewBox="0 0 512 512" style="enable-background:new 0 0 512 512;" xml:space="preserve">
<path style="fill:#61AFF6;" d="M501.065,237.804l-28.337-58.4c-1.171-2.413-1.171-5.23,0-7.644l23.904-49.263
	c2.821-5.814-1.414-12.577-7.876-12.577H158.444v394.83h330.004c6.463,0,10.698-6.763,7.876-12.577l-23.596-48.62
	c-1.171-2.414-1.171-5.231,0-7.645l28.337-58.389c1.171-2.414,1.171-5.231,0-7.645l-28.337-58.392c-1.171-2.414-1.171-5.231,0-7.645
	l28.337-58.39C502.236,243.035,502.236,240.217,501.065,237.804z"/>
<path style="fill:#55A2F0;" d="M472.727,311.483c-1.171-2.414-1.171-5.231,0-7.645l28.337-58.39c1.171-2.414,1.171-5.231,0-7.644
	l-28.337-58.399c-1.171-2.413-1.171-5.23,0-7.644l23.904-49.263c2.821-5.814-1.414-12.577-7.876-12.577h-45.183
	c6.463,0,10.698,6.762,7.876,12.577l-23.904,49.263c-1.171,2.413-1.171,5.23,0,7.644l28.337,58.399c1.171,2.414,1.171,5.231,0,7.644
	l-28.337,58.39c-1.171,2.414-1.171,5.231,0,7.645l28.337,58.392c1.171,2.414,1.171,5.231,0,7.645l-28.337,58.389
	c-1.171,2.414-1.171,5.231,0,7.645l21.84,45.002h-290.94v16.195h284.821h45.183c6.463,0,10.698-6.763,7.876-12.577l-2.607-5.372l0,0
	l-20.989-43.248c-1.171-2.414-1.171-5.231,0-7.645l28.337-58.389c1.171-2.414,1.171-5.231,0-7.645L472.727,311.483z"/>
<path style="fill:#61AFF6;" d="M200.246,504.75H56.389c-25.587,0-46.33-20.742-46.33-46.33V55.984
	c0-26.915,21.819-48.734,48.734-48.734h141.453c26.915,0,48.734,21.819,48.734,48.734v400.032
	C248.98,482.931,227.161,504.75,200.246,504.75z"/>
<g>
	<path style="fill:#55A2F0;" d="M200.246,7.25h-45.19c26.915,0,48.734,21.819,48.734,48.734v400.032
		c0,26.915-21.819,48.734-48.734,48.734h45.19c26.915,0,48.734-21.819,48.734-48.734V55.984
		C248.98,29.069,227.161,7.25,200.246,7.25z"/>
	<path style="fill:#55A2F0;" d="M191.719,504.75H56.389c-25.587,0-46.33-20.743-46.33-46.33l0,0c0-25.587,20.743-46.33,46.33-46.33
		h135.33c25.587,0,46.33,20.743,46.33,46.33l0,0C238.049,484.007,217.306,504.75,191.719,504.75z"/>
</g>
<path d="M479.246,308.294c-0.197-0.407-0.197-0.874,0-1.281l28.333-58.382c2.159-4.451,2.159-9.556,0-14.005l-28.333-58.39
	c-0.197-0.407-0.197-0.874,0-1.281l23.901-49.256c2.428-5.003,2.115-10.803-0.836-15.516c-2.952-4.713-8.034-7.527-13.594-7.527
	h-71.372c-4.024,0-7.287,3.262-7.287,7.287s3.262,7.287,7.287,7.287h71.372c0.671,0,1.047,0.374,1.243,0.688s0.37,0.815,0.076,1.419
	l-23.901,49.256c-2.159,4.45-2.159,9.554,0,14.004l28.334,58.392c0.197,0.407,0.197,0.873,0,1.28l-28.332,58.381
	c-2.16,4.45-2.16,9.555-0.001,14.006l28.333,58.384c0.197,0.407,0.197,0.873,0,1.281l-28.332,58.38c-2.16,4.451-2.16,9.556,0,14.006
	l23.592,48.613c0.293,0.604,0.12,1.105-0.076,1.419c-0.197,0.314-0.572,0.688-1.243,0.688H237.897
	c0.015-0.014,0.029-0.029,0.045-0.043c0.668-0.609,1.321-1.234,1.96-1.874c0.219-0.22,0.427-0.45,0.642-0.674
	c0.427-0.442,0.854-0.884,1.267-1.341c0.249-0.275,0.486-0.561,0.729-0.841c0.364-0.419,0.729-0.836,1.08-1.265
	c0.252-0.308,0.492-0.625,0.738-0.939c0.326-0.416,0.652-0.831,0.966-1.256c0.245-0.332,0.48-0.671,0.717-1.008
	c0.297-0.422,0.594-0.843,0.88-1.273c0.233-0.35,0.456-0.706,0.681-1.061c0.273-0.431,0.543-0.862,0.804-1.3
	c0.218-0.366,0.428-0.737,0.638-1.108c0.249-0.44,0.494-0.883,0.731-1.33c0.201-0.38,0.396-0.763,0.589-1.148
	c0.226-0.452,0.447-0.907,0.662-1.366c0.183-0.391,0.361-0.785,0.535-1.182c0.204-0.465,0.4-0.932,0.592-1.404
	c0.163-0.401,0.323-0.802,0.477-1.208c0.182-0.479,0.354-0.962,0.523-1.448c0.142-0.408,0.283-0.815,0.416-1.227
	c0.16-0.495,0.307-0.994,0.453-1.495c0.12-0.412,0.242-0.822,0.352-1.238c0.137-0.512,0.259-1.03,0.381-1.548
	c0.097-0.413,0.199-0.824,0.287-1.241c0.113-0.535,0.21-1.076,0.308-1.616c0.074-0.408,0.154-0.813,0.219-1.223
	c0.09-0.57,0.161-1.147,0.233-1.723c0.049-0.388,0.107-0.773,0.148-1.163c0.068-0.646,0.112-1.298,0.158-1.95
	c0.023-0.327,0.057-0.651,0.075-0.979c0.052-0.984,0.08-1.974,0.08-2.971V117.229h115.756c4.024,0,7.287-3.262,7.287-7.287
	s-3.262-7.287-7.287-7.287H256.263V56.014C256.263,25.128,231.135,0,200.249,0H58.817C27.931,0,2.804,25.128,2.804,56.014v257.55
	c0,4.024,3.262,7.286,7.287,7.286s7.287-3.262,7.287-7.286V56.014c0-22.851,18.59-41.441,41.44-41.441H200.25
	c22.851,0,41.441,18.59,41.441,41.441v53.928v329.06c-7.789-20.002-27.242-34.221-49.966-34.221H56.413
	c-15.376,0-29.252,6.517-39.037,16.922v-62.229c0-4.024-3.262-7.287-7.287-7.287s-7.287,3.262-7.287,7.287v96.513
	c0,0.403,0.022,0.801,0.03,1.202c-0.009,0.401-0.03,0.798-0.03,1.201c0,29.561,24.049,53.61,53.61,53.61h2.404h132.907h8.526
	h288.159c5.561,0,10.643-2.814,13.594-7.527s3.264-10.514,0.836-15.517l-23.593-48.613c-0.197-0.407-0.197-0.874,0-1.281
	l28.332-58.38c2.16-4.451,2.16-9.556,0-14.007L479.246,308.294z M191.723,497.427H58.817c-22.447,0-40.77-17.943-41.41-40.239
	c0.639-20.969,17.884-37.835,39.006-37.835h135.31c21.525,0,39.037,17.512,39.037,39.037
	C230.76,479.915,213.248,497.427,191.723,497.427z"/>
<path d="M191.723,430.767H56.414c-7.568,0-14.634,3.009-19.894,8.472c-5.258,5.461-7.995,12.638-7.709,20.21
	c0.563,14.895,12.907,26.563,28.102,26.563h134.81c4.024,0,7.287-3.262,7.287-7.287s-3.262-7.287-7.287-7.287H56.913
	c-7.204,0-13.278-5.626-13.539-12.541c-0.135-3.578,1.158-6.97,3.644-9.551c2.488-2.584,5.825-4.008,9.397-4.008h135.309
	c3.756,0,7.335,1.63,9.822,4.472c0.113,0.129,0.284,0.324,0.087,0.759c-0.242,0.533-0.646,0.533-0.798,0.533h-62.639
	c-4.024,0-7.287,3.262-7.287,7.287c0,4.024,3.262,7.287,7.287,7.287h62.639c6.136,0,11.527-3.481,14.069-9.085
	c2.515-5.542,1.598-11.818-2.392-16.377C207.259,434.211,199.681,430.767,191.723,430.767z"/>
<g>
</g>
<g>
</g>
<g>
</g>
<g>
</g>
<g>
</g>
<g>
</g>
<g>
</g>
<g>
</g>
<g>
</g>
<g>
</g>
<g>
</g>
<g>
</g>
<g>
</g>
<g>
</g>
<g>
</g>
</svg>
