<svg id="Capa_1" enable-background="new 0 0 512 512" height="512" viewBox="0 0 512 512" width="512" xmlns="http://www.w3.org/2000/svg"><g><g><path d="m331.097 424.311-234.67-53.925c-8.074-1.855-13.115-9.904-11.26-17.978l76.581-333.268c1.855-8.074 9.904-13.115 17.978-11.26l234.67 53.925c8.074 1.855 13.115 9.904 11.26 17.978l-76.582 333.268c-1.854 8.074-9.903 13.115-17.977 11.26z" fill="#9dc6fb"/></g><g><path d="m414.422 61.811-12.262-2.818-73.775 321.057c-1.852 8.06-9.887 13.092-17.947 11.24l-222.459-51.119-2.818 12.262c-1.852 8.06 3.18 16.095 11.24 17.947l234.721 53.937c8.06 1.852 16.095-3.18 17.947-11.24l76.593-333.319c1.853-8.06-3.18-16.095-11.24-17.947z" fill="#80b4fb"/></g><g><path d="m335.519 452.098h-240.786c-8.284 0-15-6.716-15-15v-341.953c0-8.284 6.716-15 15-15h240.786c8.284 0 15 6.716 15 15v341.954c0 8.284-6.715 14.999-15 14.999z" fill="#ecbe6b"/></g><g><path d="m335.545 80.145h-12.582v329.424c0 8.27-6.704 14.974-14.974 14.974h-228.256v12.582c0 8.27 6.704 14.974 14.974 14.974h240.838c8.27 0 14.974-6.704 14.974-14.974v-342.006c0-8.27-6.704-14.974-14.974-14.974z" fill="#eab14d"/></g><g><g><g><path d="m333.898 132.559h-157.44c-8.272 0-14.977 6.705-14.977 14.977v342c0 8.272 6.705 14.977 14.977 14.977h240.832c8.272 0 14.977-6.705 14.977-14.977v-258.607c0-5.296-2.104-10.376-5.849-14.12l-78.4-78.4c-3.745-3.746-8.824-5.85-14.12-5.85z" fill="#f9f6f9"/></g></g><g><g><path d="m426.419 216.808-26.889-26.889c3.744 3.745 5.848 8.824 5.848 14.12v258.607c0 8.272-6.705 14.977-14.977 14.977h-228.92v11.913c0 8.271 6.705 14.977 14.977 14.977h240.832c8.271 0 14.977-6.706 14.977-14.977v-258.607c0-5.296-2.104-10.376-5.848-14.121z" fill="#e7ecf6"/></g></g><g><g><path d="m426.418 216.808-78.4-78.4c-2.757-2.757-6.24-4.615-9.997-5.409v83.822c0 5.514 4.47 9.985 9.985 9.985h83.822c-.794-3.758-2.653-7.241-5.41-9.998z" fill="#e7ecf6"/></g></g><g><g><path d="m426.419 216.808-17.412-17.412h-70.985v17.425c0 5.514 4.47 9.985 9.985 9.985h83.822c-.795-3.758-2.653-7.241-5.41-9.998z" fill="#d8e2f1"/></g></g></g><g><path d="m433.184 213.115c-.471-.55-.956-1.085-1.471-1.601l-23.292-23.292 24.539-106.788c1.344-5.846.33-11.867-2.854-16.952-3.184-5.084-8.158-8.625-14.005-9.968l-234.723-53.937c-5.844-1.34-11.867-.33-16.952 2.854-5.085 3.185-8.625 8.159-9.969 14.006l-12.689 55.22h-47.061c-12.385 0-22.461 10.076-22.461 22.461v82.469c0 4.135 3.352 7.487 7.487 7.487s7.487-3.352 7.487-7.487v-82.469c0-4.129 3.358-7.487 7.487-7.487h240.839c4.129 0 7.487 3.358 7.487 7.487v3.206c0 4.135 3.352 7.487 7.487 7.487s7.487-3.352 7.487-7.487v-3.206c0-12.385-10.076-22.461-22.461-22.461h-178.413l11.918-51.866c.448-1.949 1.628-3.607 3.323-4.669s3.7-1.402 5.651-.951l234.721 53.937c1.949.447 3.607 1.628 4.668 3.322 1.062 1.695 1.399 3.702.951 5.65l-22.439 97.648-42.615-42.615c-5.046-5.067-12.147-8.09-19.415-8.042h-157.44c-12.387 0-22.464 10.077-22.464 22.464v2.668h-37.51c-4.135 0-7.487 3.352-7.487 7.487s3.352 7.487 7.487 7.487h37.51v26.25h-37.51c-4.135 0-7.487 3.352-7.487 7.487s3.352 7.487 7.487 7.487h37.51v26.251h-37.51c-4.135 0-7.487 3.352-7.487 7.487s3.352 7.487 7.487 7.487h37.51v26.251h-37.51c-4.135 0-7.487 3.352-7.487 7.487s3.352 7.487 7.487 7.487h37.51v26.25h-37.51c-4.135 0-7.487 3.352-7.487 7.487s3.352 7.487 7.487 7.487h37.51v26.251h-37.51c-4.135 0-7.487 3.352-7.487 7.487s3.352 7.487 7.487 7.487h37.51v73.308h-59.285c-4.129 0-7.487-3.358-7.487-7.487v-223.8c0-4.135-3.352-7.487-7.487-7.487s-7.487 3.352-7.487 7.487v223.8c0 12.385 10.076 22.461 22.461 22.461h59.287v29.951c0 12.387 10.077 22.464 22.464 22.464h29.194c4.135 0 7.487-3.352 7.487-7.487s-3.352-7.487-7.487-7.487h-29.194c-4.13 0-7.49-3.36-7.49-7.49v-342c0-4.13 3.36-7.49 7.49-7.49h154.076v76.775c0 9.634 7.838 17.472 17.472 17.472h76.774v255.243c0 4.13-3.36 7.49-7.49 7.49h-174.795c-4.135 0-7.487 3.352-7.487 7.487s3.352 7.49 7.487 7.49h174.795c12.387 0 22.464-10.077 22.464-22.464v-258.608c0-6.604-2.323-12.848-6.57-17.813zm-87.676 3.706v-70.334l72.832 72.832h-70.335c-1.376 0-2.497-1.12-2.497-2.498z"/><path d="m380.277 417.736c4.135 0 7.487-3.352 7.487-7.487s-3.352-7.487-7.487-7.487h-148.217v-26.25h148.218c4.135 0 7.487-3.352 7.487-7.487s-3.352-7.487-7.487-7.487h-148.218v-26.251h148.218c4.135 0 7.487-3.352 7.487-7.487s-3.352-7.487-7.487-7.487h-148.218v-26.25h148.218c4.135 0 7.487-3.352 7.487-7.487s-3.352-7.487-7.487-7.487h-148.218v-9.972c0-4.135-3.352-7.487-7.487-7.487s-7.487 3.352-7.487 7.487v9.972h-21.804c-4.135 0-7.487 3.352-7.487 7.487s3.352 7.487 7.487 7.487h21.804v26.25h-21.804c-4.135 0-7.487 3.352-7.487 7.487s3.352 7.487 7.487 7.487h21.804v26.251h-21.804c-4.135 0-7.487 3.352-7.487 7.487s3.352 7.487 7.487 7.487h21.804v26.25h-21.804c-4.135 0-7.487 3.352-7.487 7.487s3.352 7.487 7.487 7.487h21.804v9.959c0 4.135 3.352 7.487 7.487 7.487s7.487-3.352 7.487-7.487v-9.959z"/></g></g></svg>