<svg id="Capa_1" enable-background="new 0 0 512 512" height="512" viewBox="0 0 512 512" width="512" xmlns="http://www.w3.org/2000/svg"><g><g><path d="m33.832 200.458h444.339v272.662h-444.339z" fill="#f1cb86"/></g><g><path d="m455.953 200.458h22.218v272.662h-22.218z" fill="#ecbe6b"/></g><g><g><path d="m66.146 232.773h34.335v60.592h-34.335z" fill="#9dc6fb"/></g></g><g><g><path d="m152.489 232.773h34.335v60.592h-34.335z" fill="#9dc6fb"/></g></g><g><g><path d="m238.832 232.773h34.335v60.592h-34.335z" fill="#9dc6fb"/></g></g><g><g><path d="m325.176 232.773h34.335v60.592h-34.335z" fill="#9dc6fb"/></g></g><g><g><path d="m411.519 232.773h34.335v60.592h-34.335z" fill="#9dc6fb"/></g></g><g><g><path d="m66.146 379.203h34.335v60.592h-34.335z" fill="#9dc6fb"/></g></g><g><g><path d="m152.489 379.203h34.335v60.592h-34.335z" fill="#9dc6fb"/></g></g><g><g><path d="m325.176 379.203h34.335v60.592h-34.335z" fill="#9dc6fb"/></g></g><g><g><path d="m411.519 379.203h34.335v60.592h-34.335z" fill="#9dc6fb"/></g></g><g><path d="m256 382.233h38.375v90.888h-38.375z" fill="#5e54ac"/></g><g><path d="m217.625 382.233h38.375v90.888h-38.375z" fill="#5e54ac"/></g><g><path d="m451.913 38.88h-391.826l-52.513 161.578h496.852z" fill="#df75a5"/></g><g><path d="m451.913 38.88h-25.246l52.512 161.578h25.247z" fill="#dd5790"/></g><g><path d="m288.316 150.974v-44.434l-32.316-26.256-32.316 26.256v44.434z" fill="#9dc6fb"/></g><g><path d="m413.538 150.974v-44.434l-32.315-26.256-32.316 26.256v44.434z" fill="#9dc6fb"/></g><g><path d="m98.462 150.974v-44.434l32.315-26.256 32.316 26.256v44.434z" fill="#9dc6fb"/></g><g><path d="m66.146 300.939h34.335c4.183 0 7.574-3.391 7.574-7.574v-60.592c0-4.183-3.391-7.574-7.574-7.574h-34.335c-4.183 0-7.574 3.391-7.574 7.574v60.592c0 4.183 3.391 7.574 7.574 7.574zm7.574-60.592h19.187v45.444h-19.187z"/><path d="m66.146 343.858h34.335c4.183 0 7.574-3.391 7.574-7.574s-3.391-7.574-7.574-7.574h-34.335c-4.183 0-7.574 3.391-7.574 7.574s3.391 7.574 7.574 7.574z"/><path d="m152.489 343.858h34.335c4.183 0 7.574-3.391 7.574-7.574s-3.391-7.574-7.574-7.574h-34.335c-4.183 0-7.574 3.391-7.574 7.574s3.391 7.574 7.574 7.574z"/><path d="m238.832 343.858h34.335c4.183 0 7.574-3.391 7.574-7.574s-3.391-7.574-7.574-7.574h-34.335c-4.183 0-7.574 3.391-7.574 7.574s3.391 7.574 7.574 7.574z"/><path d="m325.176 343.858h34.335c4.183 0 7.574-3.391 7.574-7.574s-3.391-7.574-7.574-7.574h-34.335c-4.183 0-7.574 3.391-7.574 7.574s3.39 7.574 7.574 7.574z"/><path d="m411.519 343.858h34.335c4.183 0 7.574-3.391 7.574-7.574s-3.391-7.574-7.574-7.574h-34.335c-4.183 0-7.574 3.391-7.574 7.574s3.39 7.574 7.574 7.574z"/><path d="m152.489 300.939h34.335c4.183 0 7.574-3.391 7.574-7.574v-60.592c0-4.183-3.391-7.574-7.574-7.574h-34.335c-4.183 0-7.574 3.391-7.574 7.574v60.592c0 4.183 3.391 7.574 7.574 7.574zm7.574-60.592h19.187v45.444h-19.187z"/><path d="m238.832 300.939h34.335c4.183 0 7.574-3.391 7.574-7.574v-60.592c0-4.183-3.391-7.574-7.574-7.574h-34.335c-4.183 0-7.574 3.391-7.574 7.574v60.592c0 4.183 3.391 7.574 7.574 7.574zm7.574-60.592h19.187v45.444h-19.187z"/><path d="m325.176 300.939h34.335c4.183 0 7.574-3.391 7.574-7.574v-60.592c0-4.183-3.391-7.574-7.574-7.574h-34.335c-4.183 0-7.574 3.391-7.574 7.574v60.592c0 4.183 3.39 7.574 7.574 7.574zm7.573-60.592h19.187v45.444h-19.187z"/><path d="m411.519 300.939h34.335c4.183 0 7.574-3.391 7.574-7.574v-60.592c0-4.183-3.391-7.574-7.574-7.574h-34.335c-4.183 0-7.574 3.391-7.574 7.574v60.592c0 4.183 3.39 7.574 7.574 7.574zm7.574-60.592h19.187v45.444h-19.187z"/><path d="m58.572 439.795c0 4.183 3.391 7.574 7.574 7.574h34.335c4.183 0 7.574-3.391 7.574-7.574v-60.592c0-4.183-3.391-7.574-7.574-7.574h-34.335c-4.183 0-7.574 3.391-7.574 7.574zm15.148-53.018h19.187v45.444h-19.187z"/><path d="m144.915 439.795c0 4.183 3.391 7.574 7.574 7.574h34.335c4.183 0 7.574-3.391 7.574-7.574v-60.592c0-4.183-3.391-7.574-7.574-7.574h-34.335c-4.183 0-7.574 3.391-7.574 7.574zm15.148-53.018h19.187v45.444h-19.187z"/><path d="m317.602 439.795c0 4.183 3.391 7.574 7.574 7.574h34.335c4.183 0 7.574-3.391 7.574-7.574v-60.592c0-4.183-3.391-7.574-7.574-7.574h-34.335c-4.183 0-7.574 3.391-7.574 7.574zm15.147-53.018h19.187v45.444h-19.187z"/><path d="m403.945 439.795c0 4.183 3.391 7.574 7.574 7.574h34.335c4.183 0 7.574-3.391 7.574-7.574v-60.592c0-4.183-3.391-7.574-7.574-7.574h-34.335c-4.183 0-7.574 3.391-7.574 7.574zm15.148-53.018h19.187v45.444h-19.187z"/><path d="m478.17 291.042c-4.183 0-7.574 3.391-7.574 7.574v166.93h-168.647v-83.314c0-4.183-3.391-7.574-7.574-7.574h-38.375-38.375c-4.183 0-7.574 3.391-7.574 7.574v83.314h-168.647v-28.579c0-4.183-3.391-7.574-7.574-7.574s-7.574 3.391-7.574 7.574v36.153c0 4.183 3.391 7.574 7.574 7.574h444.34c4.183 0 7.574-3.391 7.574-7.574v-174.504c0-4.183-3.391-7.574-7.574-7.574zm-252.971 98.765h23.227v75.74h-23.227zm38.375 75.739v-75.74h23.227v75.74z"/><path d="m511.629 198.116-52.513-161.578c-1.014-3.12-3.922-5.233-7.203-5.233h-71.023c-4.183 0-7.574 3.391-7.574 7.574s3.391 7.574 7.574 7.574h65.522l47.59 146.43h-476.003l47.59-146.43h279.753c4.183 0 7.574-3.391 7.574-7.574s-3.391-7.574-7.574-7.574h-285.255c-3.281 0-6.189 2.112-7.203 5.233l-52.513 161.578c-.75 2.306-.349 4.831 1.076 6.793s3.702 3.122 6.127 3.122h18.682v193.389c0 4.183 3.391 7.574 7.574 7.574s7.574-3.391 7.574-7.574v-193.388h429.191v55.037c0 4.183 3.391 7.574 7.574 7.574s7.574-3.391 7.574-7.574v-55.037h18.682c2.425 0 4.702-1.161 6.127-3.122 1.426-1.962 1.827-4.488 1.077-6.794z"/><path d="m260.776 74.405c-2.783-2.26-6.769-2.26-9.552 0l-32.316 26.256c-1.77 1.439-2.798 3.598-2.798 5.879v44.434c0 4.183 3.391 7.574 7.574 7.574h64.631c4.183 0 7.574-3.391 7.574-7.574v-44.434c0-2.281-1.028-4.44-2.798-5.879zm19.966 68.995h-49.483v-33.255l24.741-20.103 24.742 20.103z"/><path d="m341.333 106.54v44.434c0 4.183 3.391 7.574 7.574 7.574h64.631c4.183 0 7.574-3.391 7.574-7.574v-44.434c0-2.281-1.028-4.44-2.798-5.879l-32.316-26.256c-2.783-2.26-6.769-2.26-9.552 0l-32.316 26.256c-1.769 1.44-2.797 3.598-2.797 5.879zm15.148 3.605 24.742-20.103 24.742 20.103v33.255h-49.483v-33.255z"/><path d="m135.553 74.405c-2.783-2.26-6.769-2.26-9.552 0l-32.316 26.256c-1.77 1.439-2.798 3.598-2.798 5.879v44.434c0 4.183 3.391 7.574 7.574 7.574h64.631c4.183 0 7.574-3.391 7.574-7.574v-44.434c0-2.281-1.028-4.44-2.798-5.879zm19.966 68.995h-49.483v-33.255l24.742-20.103 24.742 20.103v33.255z"/></g></g></svg>