<?xml version="1.0" encoding="iso-8859-1"?>
<!-- Generator: Adobe Illustrator 19.0.0, SVG Export Plug-In . SVG Version: 6.00 Build 0)  -->
<svg version="1.1" id="Capa_1" xmlns="http://www.w3.org/2000/svg" xmlns:xlink="http://www.w3.org/1999/xlink" x="0px" y="0px"
	 viewBox="0 0 512 512" style="enable-background:new 0 0 512 512;" xml:space="preserve">
<polyline style="fill:#ECEDF2;" points="252.312,34.178 476.505,34.178 476.505,486.45 35.498,486.45 35.498,34.178 96.229,34.178 
	"/>
<polyline style="fill:#C6CAD5;" points="252.312,34.178 476.505,34.178 476.505,80.678 35.498,80.678 35.498,34.178 96.229,34.178 
	"/>
<polyline style="fill:#525C66;" points="252.311,51.784 476.505,51.784 504.396,51.784 504.396,16.572 213.055,16.572 
	135.474,16.572 7.607,16.572 7.607,51.784 35.498,51.784 96.228,51.784 "/>
<circle style="fill:#FFFFFF;" cx="174.272" cy="99.307" r="91.369"/>
<polygon style="fill:#D81616;" points="231.672,81.371 192.207,81.371 192.207,41.907 156.33,41.907 156.33,81.371 116.865,81.371 
	116.865,117.248 156.33,117.248 156.33,156.714 192.207,156.714 192.207,117.248 231.672,117.248 "/>
<rect x="7.604" y="468.847" style="fill:#423E3E;" width="496.789" height="35.211"/>
<g>
	<rect x="312.785" y="221.345" style="fill:#A0D9F2;" width="49.411" height="90.228"/>
	<rect x="149.807" y="221.345" style="fill:#A0D9F2;" width="49.411" height="90.228"/>
	<rect x="394.268" y="221.345" style="fill:#A0D9F2;" width="49.411" height="90.228"/>
	<rect x="231.291" y="221.345" style="fill:#A0D9F2;" width="49.411" height="90.228"/>
	<rect x="68.324" y="221.345" style="fill:#A0D9F2;" width="49.411" height="90.228"/>
	<rect x="149.807" y="342.237" style="fill:#A0D9F2;" width="49.411" height="90.228"/>
	<rect x="231.291" y="342.237" style="fill:#A0D9F2;" width="49.411" height="90.228"/>
	<rect x="68.324" y="342.237" style="fill:#A0D9F2;" width="49.411" height="90.228"/>
	<rect x="312.785" y="100.453" style="fill:#A0D9F2;" width="49.411" height="90.228"/>
	<rect x="394.268" y="100.453" style="fill:#A0D9F2;" width="49.411" height="90.228"/>
	<rect x="312.785" y="342.237" style="fill:#A0D9F2;" width="130.899" height="126.6"/>
</g>
<path d="M199.812,73.768V41.907c0-4.199-3.405-7.604-7.604-7.604H156.33c-4.199,0-7.604,3.405-7.604,7.604v31.861h-31.86
	c-4.199,0-7.604,3.405-7.604,7.604v35.877c0,4.199,3.405,7.604,7.604,7.604h31.86v31.86c0,4.199,3.405,7.604,7.604,7.604h35.877
	c4.199,0,7.604-3.405,7.604-7.604v-31.86h31.86c4.199,0,7.604-3.405,7.604-7.604V81.372c0-4.199-3.405-7.604-7.604-7.604H199.812z
	 M224.068,109.644h-31.86c-4.199,0-7.604,3.405-7.604,7.604v31.86h-20.669v-31.86c0-4.199-3.405-7.604-7.604-7.604h-31.86V88.976
	h31.86c4.199,0,7.604-3.405,7.604-7.604V49.511h20.669v31.861c0,4.199,3.405,7.604,7.604,7.604h31.86V109.644z"/>
<path d="M504.396,59.388c4.199,0,7.604-3.405,7.604-7.604V16.572c0-4.199-3.405-7.604-7.604-7.604h-48.552
	c-4.199,0-7.604,3.405-7.604,7.604l0,0c0,4.199,3.405,7.604,7.604,7.604h40.948V44.18h-20.287H256.422
	c-5.014-7.447-11.012-14.176-17.807-20.003h181.744c4.199,0,7.604-3.405,7.604-7.604l0,0c0-4.199-3.405-7.604-7.604-7.604H214.67
	c-12.343-5.542-26.018-8.629-40.401-8.629c-14.384,0-28.057,3.087-40.401,8.629H7.607c-4.199,0-7.604,3.405-7.604,7.604v35.211
	c0,4.199,3.405,7.604,7.604,7.604h20.287v265.953c0,4.199,3.405,7.604,7.604,7.604l0,0c4.199,0,7.604-3.405,7.604-7.604V59.388
	h40.616c-5.932,13.403-8.981,28.357-8.333,44.073c2.15,52.211,45.172,94.049,97.421,94.808
	c55.239,0.802,100.431-43.9,100.431-98.958c0-14.198-3.011-27.705-8.419-39.922h204.082V461.24h-17.62V342.239
	c0-4.199-3.405-7.604-7.604-7.604H312.781c-4.199,0-7.604,3.405-7.604,7.604V461.24H43.102V360.829c0-4.199-3.405-7.604-7.604-7.604
	l0,0c-4.199,0-7.604,3.405-7.604,7.604v100.412H7.604c-4.199,0-7.604,3.405-7.604,7.604v35.211c0,4.199,3.405,7.604,7.604,7.604
	h496.789c4.199,0,7.604-3.405,7.604-7.604v-35.211c0-4.199-3.405-7.604-7.604-7.604h-20.284V59.388H504.396z M35.498,44.18H15.211
	V24.176h94.711c-6.795,5.828-12.795,12.557-17.807,20.003H35.498z M174.269,183.072c-46.186,0-83.762-37.576-83.762-83.762
	s37.576-83.762,83.762-83.762S258.03,53.124,258.03,99.31S220.455,183.072,174.269,183.072z M385.834,461.239v-80.475h50.241v80.475
	H385.834z M436.073,349.843v15.715H320.385v-15.715H436.073z M320.385,380.766h50.241v80.475h-50.241L320.385,380.766
	L320.385,380.766z M496.789,496.452H15.208v-20.003h481.581V496.452z"/>
<path d="M305.178,311.571c0,4.199,3.405,7.604,7.604,7.604h49.411c4.199,0,7.604-3.405,7.604-7.604v-90.228
	c0-4.199-3.405-7.604-7.604-7.604h-49.411c-4.199,0-7.604,3.405-7.604,7.604V311.571z M320.385,303.967V257.84h34.203v46.127
	H320.385z M354.589,228.947v13.686h-34.203v-13.686H354.589z"/>
<path d="M149.811,319.175h49.411c4.199,0,7.604-3.405,7.604-7.604v-90.228c0-4.199-3.405-7.604-7.604-7.604h-49.411
	c-4.199,0-7.604,3.405-7.604,7.604v90.228C142.207,315.77,145.612,319.175,149.811,319.175z M157.415,303.967V257.84h34.203v46.127
	H157.415z M191.619,228.947v13.686h-34.203v-13.686H191.619z"/>
<path d="M386.662,311.571c0,4.199,3.405,7.604,7.604,7.604h49.411c4.199,0,7.604-3.405,7.604-7.604v-90.228
	c0-4.199-3.405-7.604-7.604-7.604h-49.411c-4.199,0-7.604,3.405-7.604,7.604V311.571z M401.87,303.967V257.84h34.203v46.127H401.87z
	 M436.072,228.947v13.686H401.87v-13.686H436.072z"/>
<path d="M231.296,319.175h49.411c4.199,0,7.604-3.405,7.604-7.604v-90.228c0-4.199-3.405-7.604-7.604-7.604h-49.411
	c-4.199,0-7.604,3.405-7.604,7.604v90.228C223.692,315.77,227.096,319.175,231.296,319.175z M238.9,303.967V257.84h34.203v46.127
	H238.9z M273.103,228.947v13.686H238.9v-13.686H273.103z"/>
<path d="M68.326,319.175h49.411c4.199,0,7.604-3.405,7.604-7.604v-90.228c0-4.199-3.405-7.604-7.604-7.604H68.326
	c-4.199,0-7.604,3.405-7.604,7.604v90.228C60.722,315.77,64.126,319.175,68.326,319.175z M75.93,303.967V257.84h34.203v46.127H75.93
	z M110.133,228.947v13.686H75.93v-13.686H110.133z"/>
<path d="M142.207,432.467c0,4.199,3.405,7.604,7.604,7.604h49.411c4.199,0,7.604-3.405,7.604-7.604v-90.228
	c0-4.199-3.405-7.604-7.604-7.604h-49.411c-4.199,0-7.604,3.405-7.604,7.604V432.467z M157.415,424.863v-46.13h34.203v46.13H157.415
	z M191.619,349.843v13.682h-34.203v-13.682H191.619z"/>
<path d="M223.692,432.467c0,4.199,3.405,7.604,7.604,7.604h49.411c4.199,0,7.604-3.405,7.604-7.604v-61.29
	c0-0.016,0.002-0.032,0.002-0.049v-28.885h-0.002v-0.005c0-4.199-3.405-7.604-7.604-7.604h-49.411c-4.199,0-7.604,3.405-7.604,7.604
	L223.692,432.467L223.692,432.467z M238.9,424.863v-46.13h34.203v46.13H238.9z M273.103,349.843v13.682H238.9v-13.682H273.103z"/>
<path d="M60.722,432.467c0,4.199,3.405,7.604,7.604,7.604h49.411c4.199,0,7.604-3.405,7.604-7.604v-90.228
	c0-4.199-3.405-7.604-7.604-7.604H68.326c-4.199,0-7.604,3.405-7.604,7.604V432.467z M75.93,424.863v-46.13h34.203v46.13H75.93z
	 M110.133,349.843v13.682H75.93v-13.682H110.133z"/>
<path d="M312.781,198.28h49.411c4.199,0,7.604-3.405,7.604-7.604v-90.229c0-4.199-3.405-7.604-7.604-7.604h-49.411
	c-4.199,0-7.604,3.405-7.604,7.604v90.228C305.178,194.875,308.582,198.28,312.781,198.28z M320.385,183.072v-46.123h34.203v46.123
	H320.385z M354.589,108.051v13.689h-34.203v-13.689H354.589z"/>
<path d="M394.266,198.28h49.411c4.199,0,7.604-3.405,7.604-7.604v-90.229c0-4.199-3.405-7.604-7.604-7.604h-49.411
	c-4.199,0-7.604,3.405-7.604,7.604v90.228C386.662,194.875,390.067,198.28,394.266,198.28z M401.87,183.072v-46.123h34.203v46.123
	H401.87z M436.072,108.051v13.689H401.87v-13.689H436.072z"/>
<g>
</g>
<g>
</g>
<g>
</g>
<g>
</g>
<g>
</g>
<g>
</g>
<g>
</g>
<g>
</g>
<g>
</g>
<g>
</g>
<g>
</g>
<g>
</g>
<g>
</g>
<g>
</g>
<g>
</g>
</svg>
