<svg id="Capa_1" enable-background="new 0 0 507.147 507.147" height="512" viewBox="0 0 507.147 507.147" width="512" xmlns="http://www.w3.org/2000/svg"><g id="Outline_2_"><g><path d="m111.265 177.997h64v320h-64z" fill="#5f5fc0" transform="matrix(.707 .707 -.707 .707 280.962 -2.307)"/><path d="m-4.953 334.441h320v30.676h-320z" fill="#3737b0" transform="matrix(.707 -.707 .707 .707 -201.919 212.083)"/><path d="m108.436 272.826h64v136h-64z" fill="#ff9c62" transform="matrix(.707 .707 -.707 .707 282.133 .522)"/><path d="m84.745 338.541h136v29.186h-136z" fill="#ff833b" transform="matrix(.707 -.707 .707 .707 -204.966 211.438)"/><path d="m431.764 173.949c-22.627-22.627-16.971-39.598-16.971-39.598s-62.225-62.225-73.539-73.539c-67.881-67.883-203.646 11.313-203.646 11.313s136.802-4.898 141.421 50.912c2.007 24.248-45.255 79.196-45.255 79.196l45.255 45.255s27.35-23.198 45.255-33.941c28.284-16.971 50.912-5.657 62.225 5.657 22.627 22.627 16.971 39.598 16.971 39.598l67.882-67.882c0-.001-16.97 5.656-39.598-16.971z" fill="#cfc0ca"/><g><path d="m430.32 231.962c-14.702-24.603-59.453-84.093-129.383-41.973-17.887 10.773-45.255 33.941-45.255 33.941l23.348 23.557s27.35-23.198 45.255-33.941c28.284-16.971 50.912-5.657 62.225 5.657 22.627 22.627 16.971 39.598 16.971 39.598z" fill="#af96a6"/></g><path d="m431.563 191.002h40v96h-40z" fill="#efeaed" transform="matrix(.707 .707 -.707 .707 301.26 -249.301)"/><path d="m412.118 239.654h37.588v40h-37.588z" fill="#cfc0ca" transform="matrix(.707 -.707 .707 .707 -57.392 380.752)"/></g><path d="m504.95 213.9-27.109-27.109c-.008-.013-.015-.026-.023-.039-1.925-2.947-5.463-4.218-8.748-2.979-1.325.323-14.053 2.821-32.002-15.128-17.949-17.948-15.453-30.676-15.129-32.002 1.037-2.748.243-5.51-1.842-7.596l-73.539-73.539c-29.756-29.756-76.274-37.274-134.516-21.743-42.908 11.442-76.793 31.052-78.215 31.881-2.97 1.732-4.381 5.263-3.425 8.565.957 3.303 4.003 5.536 7.473 5.409.332-.012 33.839-1.133 67.486 4.432 29.1 4.813 64.205 15.59 66.192 39.604 1.268 15.318-25.807 53.102-43.293 73.484l-226.063 226.064c-2.929 2.929-2.929 7.678 0 10.606 1.465 1.464 3.385 2.197 5.304 2.197s3.839-.732 5.304-2.197l56.922-56.922 34.648 34.648-56.922 56.922c-2.929 2.929-2.929 7.678 0 10.606 1.465 1.464 3.385 2.197 5.304 2.197s3.839-.732 5.304-2.197l120.229-120.229c2.929-2.929 2.929-7.678 0-10.606-2.93-2.929-7.678-2.929-10.607 0l-52.699 52.699-34.648-34.648 85.56-85.56 34.648 34.648-9.382 9.382c-2.929 2.929-2.929 7.678 0 10.606 2.93 2.929 7.678 2.929 10.607 0l82.344-82.344c2.56-2.158 27.661-23.213 44.033-33.037 27.378-16.426 46.229-2.305 53.063 4.529 17.948 17.948 15.452 30.676 15.128 32.002-1.24 3.284.031 6.823 2.979 8.749.013.008.027.013.039.022l27.11 27.109c2.889 2.89 7.717 2.889 10.606 0l67.882-67.882c2.926-2.926 2.926-7.675-.003-10.604zm-328.451 56.215 57.275-57.275 34.648 34.648-57.276 57.276zm215.314-56.215c-9.235-9.235-22.885-16.444-38.966-16.444-10.022 0-20.991 2.802-32.421 9.66-13.579 8.147-31.973 22.861-40.934 30.228l-35.575-35.575c4.56-5.595 11.997-15.033 19.411-25.783 16.588-24.051 24.168-41.573 23.176-53.568-1.274-15.396-10.666-27.999-27.914-37.457-12.666-6.945-29.751-12.23-50.78-15.708-13.875-2.295-27.564-3.506-39.138-4.128 41.893-18.432 121.938-44.353 167.279.99l70.799 70.799c-.683 7.763.963 23.589 19.711 42.338 10.539 10.539 20.154 15.674 27.933 18.029l-44.553 44.553c-2.355-7.78-7.489-17.395-18.028-27.934zm39.952 62.579-17.678-17.677 57.276-57.276 17.677 17.677z"/></g></svg>