<svg id="Capa_1" enable-background="new 0 0 511.012 511.012" height="512" viewBox="0 0 511.012 511.012" width="512" xmlns="http://www.w3.org/2000/svg"><g id="Outline_13_"><g><g><path d="m311.506 503.512h40l-136-496h-40z" fill="#ff9c62"/><path d="m175.506 7.512 136 496h16l-136-496z" fill="#ff833b"/><path d="m431.506 503.512h40l-136-496h-40z" fill="#ff9c62"/><path d="m295.506 7.512 136 496h16l-136-496z" fill="#ff833b"/></g><g><path d="m79.506 503.512h-40l136-496h40z" fill="#ffed77"/><path d="m175.506 7.512-136 496h16l136-496z" fill="#ffe11c"/><path d="m199.506 503.512h-40l136-496h40z" fill="#ffed77"/><path d="m295.506 7.512-136 496h16l136-496z" fill="#ffe11c"/></g></g><path d="m478.74 501.529-42.381-154.566c-1.097-3.995-5.221-6.348-9.217-5.25-3.994 1.095-6.345 5.222-5.25 9.216l39.781 145.083h-24.446l-113.944-415.559 12.223-44.577 78.351 285.75c.914 3.331 3.935 5.519 7.229 5.519.656 0 1.323-.087 1.987-.269 3.994-1.095 6.345-5.222 5.25-9.216l-85.583-312.131c-.886-3.277-3.92-5.439-7.255-5.517-.61-.014-39.009-.018-39.895 0-3.387.07-6.39 2.2-7.317 5.517l-13.843 50.483h-37.849l-13.842-50.483c-.886-3.277-3.92-5.439-7.255-5.517-.61-.014-39.009-.018-39.895 0-3.387.07-6.39 2.2-7.317 5.517l-136 496c-.618 2.256-.148 4.672 1.27 6.532 1.419 1.86 3.625 2.952 5.964 2.952h40c3.378 0 6.34-2.259 7.233-5.517l22.616-82.483h64.446l-21.529 78.517c-.618 2.256-.148 4.672 1.27 6.532 1.419 1.86 3.625 2.952 5.964 2.952h40c3.378 0 6.34-2.259 7.233-5.517l48.767-177.854 48.767 177.854c.894 3.258 3.855 5.517 7.233 5.517h40c2.339 0 4.545-1.091 5.964-2.952 1.418-1.86 1.888-4.275 1.27-6.532l-21.529-78.517h64.446l22.616 82.483c.894 3.258 3.855 5.517 7.233 5.517h40c2.34 0 4.545-1.092 5.964-2.952 1.418-1.86 1.888-4.276 1.27-6.532zm-176.997-342.517h27.526l20.016 73h-64.445l-1.479-5.394c-.024-.088-.058-.17-.084-.257zm51.655 88 20.016 73h-64.446l-20.016-73zm-28.242-103h-19.3l9.65-35.195zm-54.838-73-14.812 54.018-14.811-54.018zm-68.275 249h-64.446l20.016-73h64.446zm3.829-249h19.268l20.016 73h-24.446l-17.33-63.203c-.03-.111-.072-.215-.107-.324zm-10.366 37.805 9.65 35.195h-19.301zm13.763 50.195s18.136 65.068 18.853 65.891l-1.949 7.109h-64.446l20.016-73zm26.237 38.959-10.682-38.959h21.365zm-25.521-141.959 5.521-20.136 5.521 20.136zm-136.2 440h-24.446l131.888-481h24.446l-11.242 41h-10.925c-4.143 0-7.5 3.358-7.5 7.5s3.357 7.5 7.5 7.5h6.812l-20.016 73h-10.796c-4.143 0-7.5 3.358-7.5 7.5s3.357 7.5 7.5 7.5h6.683l-20.016 73h-10.667c-4.143 0-7.5 3.358-7.5 7.5s3.357 7.5 7.5 7.5h6.554l-20.016 73h-10.538c-4.143 0-7.5 3.358-7.5 7.5s3.357 7.5 7.5 7.5h6.425l-20.016 73h-10.409c-4.143 0-7.5 3.358-7.5 7.5s3.357 7.5 7.5 7.5h6.295zm39.684-88 20.016-73h64.446l-20.016 73zm80.316 88h-24.446l131.888-481h24.446zm147.888 0h-24.446s-53.761-195.72-54.073-196.262l12.353-45.05 17.908 65.312h-5.908c-4.143 0-7.5 3.358-7.5 7.5s3.357 7.5 7.5 7.5h10.021l20.016 73h-6.038c-4.143 0-7.5 3.358-7.5 7.5s3.357 7.5 7.5 7.5h10.151zm-8.575-88-20.016-73h64.446l20.016 73z"/></g></svg>