<svg id="Capa_1" enable-background="new 0 0 512 512" height="512" viewBox="0 0 512 512" width="512" xmlns="http://www.w3.org/2000/svg"><g id="XMLID_782_"><g id="XMLID_1503_"><path id="XMLID_921_" d="m355.998 10c-80.634 0-146 65.366-146 146s65.366 146 146 146 146-65.366 146-146-65.366-146-146-146zm0 212c-36.451 0-66-29.549-66-66s29.549-66 66-66 66 29.549 66 66-29.549 66-66 66z" fill="#ffcd69"/></g><g id="XMLID_1500_"><path id="XMLID_92_" d="m246.139 10c-87.736 0-158.86 71.124-158.86 158.859v92l-60.535 89.247c-26.162 38.569-21.231 90.483 11.724 123.438 18.972 18.971 43.891 28.456 68.811 28.456s49.84-9.486 68.812-28.457c32.955-32.954 37.886-84.867 11.724-123.438l-60.535-89.246v-83.474c-.001-70.352 57.032-127.385 127.385-127.385l101.333-40zm-91.428 362.559c15.408 22.717 12.504 53.291-6.905 72.7-22.347 22.348-58.707 22.348-81.054 0v-.001c-19.409-19.408-22.313-49.982-6.905-72.699l47.432-69.928z" fill="#ffcd69"/></g><g id="XMLID_73_"><path id="XMLID_914_" d="m136.007 278.946-48.32 24.591c-9.844 5.01-21.886 1.091-26.896-8.753-5.01-9.844-1.091-21.886 8.753-26.896l48.32-24.591c9.844-5.01 21.886-1.091 26.896 8.753 5.01 9.844 1.091 21.886-8.753 26.896z" fill="#ffcd69"/></g><g id="XMLID_1303_"><path id="XMLID_910_" d="m461.998 156v278.5h-40v-278.5" fill="#ffcd69"/></g><g id="XMLID_1308_"><path id="XMLID_95_" d="m463.883 371.72-25.628 13.043c-9.844 5.01-21.886 1.091-26.896-8.753-5.01-9.844-1.091-21.886 8.753-26.896l25.628-13.043c9.844-5.01 21.886-1.091 26.896 8.753 5.011 9.844 1.092 21.886-8.753 26.896z" fill="#ffcd69"/></g><g id="XMLID_65_"><path id="XMLID_834_" d="m471.998 329.317v-69.009c25.822-28.688 40-65.583 40-104.308 0-86.019-69.981-156-156-156h-109.859c-10.077 0-20.018.896-29.738 2.618-.114.019-.228.04-.342.063-39.793 7.135-75.802 28.325-101.669 60.549-3.457 4.307-2.769 10.601 1.539 14.059 1.846 1.481 4.057 2.201 6.253 2.201 2.915 0 5.803-1.27 7.777-3.71h32.328c-19.501 17.746-33.892 41.014-40.674 67.307l-24.334 27.513v-1.74c0-5.246.275-10.533.819-15.715.576-5.492-3.41-10.412-8.902-10.988-5.487-.568-10.413 3.409-10.988 8.902-.616 5.872-.928 11.861-.928 17.801v83.872l-12.271 6.245c-13.933 7.093-19.951 23.647-14.236 37.891l-32.304 47.626c-28.85 42.533-23.413 99.781 12.929 136.123 20.239 20.237 47.188 31.383 75.881 31.383s55.643-11.146 75.882-31.386c36.342-36.341 41.779-93.588 12.929-136.122l-44.727-65.94c1.75-2.459 3.139-5.194 4.1-8.147 2.48-7.62 1.844-15.75-1.791-22.892-3.568-7.01-9.533-12.013-16.393-14.531v-55.597c0-56.738 40.464-104.201 94.05-115.053-19.66 26.102-31.331 58.546-31.331 93.667 0 86.019 69.981 156 156 156 19.431 0 38.204-3.487 56-10.357v40.712c-12.067 8.426-16.411 24.708-9.55 38.191 2.313 4.544 5.633 8.247 9.55 10.976v42.979c0 5.522 4.477 10 10 10h40c5.523 0 10-4.478 10-10v-56.015c5.331-3.709 9.296-9.022 11.341-15.305 2.479-7.62 1.844-15.75-1.791-22.892-2.312-4.543-5.633-8.242-9.55-10.971zm-374.719-128.529 20-22.612v54.546c-1.336.456-2.656 1.005-3.95 1.663l-16.05 8.168zm-23.199 76.012 48.32-24.591c1.449-.737 2.995-1.087 4.519-1.087 3.646 0 7.165 1.998 8.929 5.464 1.211 2.38 1.423 5.09.597 7.63-.827 2.54-2.593 4.605-4.974 5.817l-48.32 24.592c-4.914 2.499-10.947.538-13.448-4.376-2.5-4.915-.537-10.948 4.377-13.449zm85.998 50.229-7.083 25.187-35.647-52.553 17.965-9.143zm-86.255 111.158c-16.022-16.021-18.419-41.262-5.7-60.015l39.156-57.727 39.156 57.727c12.72 18.753 10.322 43.993-5.7 60.016-8.919 8.92-20.8 13.832-33.456 13.832s-24.536-4.914-33.456-13.833zm-22.251-71.242c-7.956 11.729-11.751 25.242-11.573 38.64l-17.435 20.099c-5.241-21.274-2.456-44.276 8.831-64.111l20.375 5.082zm12.976-54.76c4.331 2.293 9.183 3.524 14.117 3.524 2.836 0 5.699-.405 8.501-1.239l-23.438 34.554-20.67-5.155zm-33.783 134.565 14.262-16.441c3.298 8.054 8.196 15.564 14.653 22.022 4.138 4.138 8.729 7.658 13.653 10.54l12.449 26.485c-15.113-3.797-28.962-11.601-40.243-22.882-5.96-5.961-10.879-12.62-14.774-19.724zm78.339 45.206-9.585-20.392c2.558.291 5.146.456 7.76.456 16.955 0 32.936-6.21 45.347-17.545l30.375-6.273c-3.761 6.563-8.428 12.717-13.982 18.271-16.032 16.03-37.249 25.022-59.915 25.483zm82.829-66.021-22.515 4.65c7.382-17.801 6.909-38.296-1.943-55.98l7.29-25.924 4.774 7.038c14.339 21.141 18.249 46.747 12.394 70.216zm28.858-255.274 19.278-10.815c.488 14.894 3.796 29.085 9.408 42.059l-10.771 22.857c-9.533-16.2-15.808-34.534-17.915-54.101zm78.605-138.308 18.931 13.931c-11.469 3.949-22.131 9.644-31.664 16.773h-29.851c12.004-12.803 26.447-23.287 42.584-30.704zm76.567-10.884 5.611 21.378c-8.232-1.86-16.79-2.847-25.576-2.847-3.94 0-7.833.199-11.673.585l-22.177-16.32c10.826-2.784 22.168-4.265 33.85-4.265 6.782 0 13.447.506 19.965 1.469zm-75.965 134.531c0-30.879 25.122-56 56-56s56 25.121 56 56-25.122 56-56 56-56-25.121-56-56zm56-96c6.727 0 13.293.699 19.633 2.021l8.915 23.563c-8.82-3.589-18.453-5.584-28.548-5.584-.143 0-.285.01-.428.011l-35.332-13.098c11.058-4.455 23.127-6.913 35.76-6.913zm90.177 63.059-15.184 20.655c-2.26-13.841-8.27-26.432-16.953-36.702l-13.666-36.12c21.055 11.022 37.543 29.625 45.803 52.167zm-148.565-43.205 23.444 8.691c-8.69 4.52-16.397 10.666-22.724 18.038l-30.468 11.384c6.542-15.103 16.856-28.205 29.748-38.113zm134.388 96.254 19.758-26.876c.157 2.237.242 4.493.242 6.769v58.655l-20 30.309zm7.984-100.045c-10.116-10.623-22.224-19.332-35.715-25.53l-6.269-23.886c16.293 5.303 31.247 13.598 44.204 24.244zm-198.719 6.994h24.612c-12.174 15.012-20.681 33.11-24.142 52.923l-21.495 12.059c1.381-23.808 8.909-45.992 21.025-64.982zm18.735 72.943c0-4.802.359-9.521 1.043-14.135l22.355-8.353c-2.207 7.109-3.398 14.662-3.398 22.487 0 6.793.909 13.376 2.589 19.647l-6.973 32.773c-9.868-15.08-15.616-33.089-15.616-52.419zm32.007 71.494 5.025-23.618c9.341 11.483 21.953 20.204 36.411 24.707l19.027 23.346c-23.179-.843-44.285-9.939-60.463-24.435zm84.538 22.317-14.716-18.056c19.799-1.51 37.501-10.621 50.172-24.436v26.666c-10.739 7.741-22.73 13.07-35.456 15.826zm55.455 31.469 20-30.311v73.067c-3.662.341-7.321 1.356-10.793 3.123l-9.207 4.686zm-11.725 90.195c-2.501-4.915-.538-10.948 4.376-13.449l25.628-13.042c1.449-.737 2.995-1.087 4.519-1.087 3.646 0 7.165 1.998 8.929 5.464 1.211 2.38 1.423 5.09.597 7.63s-2.593 4.605-4.973 5.817l-25.628 13.043c-4.915 2.502-10.947.539-13.448-4.376zm51.725-144.444v-58.054l19.724-21.515c.176 2.825.276 5.669.276 8.538 0 25.366-6.983 49.826-20 71.031zm15.748-104.828-16.785 18.309c-1.911-14.262-6.419-27.713-13.039-39.856l2.75-31.388c12.63 15.216 22.013 33.218 27.074 52.935zm-208.089-102.203c-10.034 5.655-19.384 12.384-27.889 20.037-3.974.083-7.906.335-11.791.75l-7.981-20.111c4.674-.439 9.39-.676 14.143-.676zm-130.349 35.78c18.046-15.501 39.426-26.366 62.484-31.796l8.124 20.472c-10.217 2.673-19.97 6.499-29.12 11.324zm102.673 187.729 9.549-20.264c8.298 11.624 18.689 21.653 30.612 29.546l2.877 24.747c-16.563-8.344-31.194-19.974-43.038-34.029zm64.16 42.527-2.565-22.069c10.538 4.155 21.825 6.81 33.597 7.699l16.898 20.101c-2.675.154-5.366.233-8.071.233-13.865 0-27.249-2.09-39.859-5.964zm71.217 2.353-14.775-17.575c13.895-1.968 27.178-6.405 39.414-13.188v22.338c-7.978 3.618-16.203 6.436-24.639 8.425zm44.64 136.111v-27.706c3.662-.34 7.321-1.353 10.793-3.12l9.207-4.686v35.512z"/><path id="XMLID_938_" d="m100.738 119.06c2.63 0 5.21-1.069 7.07-2.93 1.86-1.86 2.93-4.44 2.93-7.07s-1.07-5.21-2.93-7.069c-1.87-1.86-4.44-2.931-7.07-2.931s-5.21 1.07-7.07 2.931c-1.87 1.859-2.93 4.439-2.93 7.069s1.06 5.21 2.93 7.07c1.86 1.86 4.44 2.93 7.07 2.93z"/></g></g></svg>