<svg id="Capa_1" enable-background="new 0 0 512 512" height="512" viewBox="0 0 512 512" width="512" xmlns="http://www.w3.org/2000/svg"><g><g><g><g><path d="m432.659 261.789s-4.688-101.416 45.025-165.979c3.851-5.002-1.818-11.723-7.398-8.772-26.357 13.941-68.552 54.437-79.255 171.692z" fill="#1ca56f"/></g><g><path d="m180.832 310.777s4.059-87.825-38.3-145.356c-3.788-5.144 2.195-11.773 7.706-8.542 23.534 13.798 58.495 51.021 67.638 151.175z" fill="#1ca56f"/></g><g><g><g><g><path d="m208.092 222.61c-10.036 0-18.645-7.596-19.694-17.797-2.764-26.895-7.365-52.606-13.672-76.418-2.804-10.582 3.502-21.434 14.084-24.237 10.588-2.805 21.434 3.503 24.237 14.085 6.837 25.807 11.812 53.57 14.787 82.518 1.119 10.89-6.802 20.626-17.692 21.745-.689.069-1.372.104-2.05.104z" fill="#fcb44d"/></g></g><g><g><path d="m210.14 222.504c-.69.07-1.37.11-2.05.11-1.72 0-3.4-.22-5-.65 4.27-4.09 6.67-10.03 6.02-16.36-2.98-28.95-7.95-56.71-14.79-82.52-1.89-7.15-7.46-12.34-14.13-14.1 2.34-2.24 5.27-3.94 8.62-4.83 10.59-2.8 21.43 3.51 24.24 14.09 6.83 25.81 11.81 53.57 14.78 82.52 1.12 10.89-6.8 20.62-17.69 21.74z" fill="#fb9927"/></g></g></g></g><g><g><path d="m98.53 295.431s-3.99-86.324 38.325-141.28c3.278-4.257-1.547-9.979-6.297-7.466-22.435 11.866-58.35 46.336-67.461 146.143z" fill="#1ca56f"/></g><g><path d="m65.209 295.431s3.99-86.324-38.325-141.28c-3.278-4.257 1.547-9.979 6.297-7.466 22.435 11.866 58.35 46.336 67.461 146.143z" fill="#a3e440"/></g><path d="m41.611 309.766s3.455-74.756-32.601-123.725c-3.224-4.379 1.869-10.021 6.559-7.271 20.032 11.745 49.79 43.428 57.572 128.679z" fill="#1ca56f"/></g><g><g><path d="m444.748 294.67s-3.99-86.324 38.325-141.28c3.278-4.257-1.547-9.979-6.297-7.466-22.435 11.866-58.35 46.336-67.461 146.143z" fill="#a3e440"/></g><path d="m468.347 309.005s-3.455-74.756 32.601-123.725c3.224-4.379-1.869-10.021-6.559-7.271-20.032 11.745-49.79 43.428-57.573 128.679z" fill="#1ca56f"/></g><g><g><path d="m236.471 267.757s-4.688-101.416 45.025-165.979c3.851-5.002-1.818-11.723-7.398-8.772-26.357 13.941-68.551 54.437-79.255 171.692z" fill="#a3e440"/></g><path d="m264.196 284.598s-4.059-87.825 38.3-145.356c3.788-5.144-2.195-11.773-7.706-8.542-23.534 13.798-58.495 51.021-67.638 151.175z" fill="#1ca56f"/></g><g><path d="m504.5 317.246c0-32.255-111.257-58.403-248.5-58.403s-248.5 26.148-248.5 58.403c0 17.811 33.928 33.758 87.419 44.469 18.154 3.635 35.115 12.165 48.151 25.312 22.336 22.529 81.772 38.64 151.593 38.64 88.951 0 161.061-26.148 161.061-58.403 0-.048 0-.096 0-.143-.058-8.716 5.062-16.579 13.184-19.742 22.591-8.797 35.592-19.108 35.592-30.133z" fill="#64b9fc"/><g fill="#31a7fb"><ellipse cx="252.722" cy="382.796" rx="37.549" ry="9.503"/><ellipse cx="150.062" cy="326.283" rx="37.549" ry="9.503"/><path d="m504.5 317.244c0 11.03-13 21.34-35.59 30.14-8.13 3.16-13.25 11.02-13.19 19.74v.14c0 30.37-63.91 55.32-145.62 58.13 59.38-10.47 100.67-33.68 100.67-60.63v-.16c-.06-9.94 5.4-18.9 14.05-22.51 24.09-10.03 37.95-21.78 37.95-34.35 0-11.71-12.03-22.72-33.17-32.28 46.21 10.6 74.9 25.4 74.9 41.78z"/></g></g><g><g><g><g><path d="m142.923 234.616c-8.86 0-16.461-6.706-17.387-15.712-2.44-23.744-6.502-46.443-12.07-67.466-2.476-9.343 3.092-18.923 12.435-21.398 9.348-2.476 18.923 3.092 21.397 12.435 6.036 22.784 10.429 47.295 13.055 72.851.988 9.614-6.005 18.209-15.619 19.197-.609.063-1.212.093-1.811.093z" fill="#ffd496"/></g></g><g><g><path d="m144.73 234.524c-.6.06-1.21.09-1.81.09-2.36 0-4.64-.48-6.72-1.35 4.04-3.61 6.36-9.04 5.76-14.85-2.63-25.55-7.02-50.06-13.06-72.85-1.44-5.47-5.33-9.64-10.17-11.67 1.99-1.78 4.41-3.12 7.17-3.85 9.35-2.48 18.92 3.09 21.4 12.43 6.03 22.78 10.43 47.3 13.05 72.85.99 9.62-6 18.21-15.62 19.2z" fill="#fcc16d"/></g></g></g></g><g><g><g><g><g><path d="m265.941 301.907c8.834.683 16.929-5.417 18.547-14.325 4.264-23.485 10.064-45.804 17.238-66.334 3.189-9.124-1.623-19.105-10.747-22.293-9.129-3.19-19.105 1.624-22.293 10.748-7.775 22.251-14.045 46.35-18.634 71.627-1.727 9.509 4.583 18.618 14.092 20.345.601.108 1.2.185 1.797.232z" fill="#ffd496"/></g></g><g><g><path d="m301.73 221.244c-7.18 20.53-12.98 42.85-17.24 66.34-1.62 8.91-9.71 15.01-18.55 14.32-.6-.04-1.19-.12-1.8-.23-3.7-.67-6.92-2.47-9.37-4.96 6.1-1.83 10.98-6.94 12.2-13.64 4.26-23.49 10.06-45.81 17.23-66.34 2.27-6.5.49-13.43-4.02-18.03 3.42-1.02 7.17-1.02 10.8.25 9.12 3.19 13.93 13.17 10.75 22.29z" fill="#fcc16d"/></g></g></g></g></g><g><ellipse cx="333.641" cy="308.351" fill="#31a7fb" rx="37.549" ry="9.503"/><g><g><g><path d="m346.572 228.231c-1.544 0-3.112-.206-4.673-.637-9.315-2.575-14.779-12.215-12.204-21.53 7.991-28.907 19.232-55.809 33.409-79.958 4.893-8.335 15.616-11.125 23.952-6.231 8.334 4.893 11.124 15.616 6.231 23.951-12.634 21.519-22.68 45.597-29.858 71.564-2.143 7.755-9.183 12.841-16.857 12.841z" fill="#fcb44d"/></g></g><g><g><path d="m393.29 143.824c-12.64 21.52-22.68 45.6-29.86 71.57-2.14 7.75-9.18 12.84-16.86 12.84-1.54 0-3.11-.21-4.67-.64-3.73-1.03-6.84-3.2-9.07-6.02 5.9-1.49 10.85-6.03 12.58-12.31 7.18-25.96 17.22-50.04 29.86-71.56 3.76-6.4 2.98-14.21-1.36-19.7 4.3-1.09 9.02-.55 13.15 1.87 8.33 4.89 11.12 15.62 6.23 23.95z" fill="#fb9927"/></g></g></g></g><g><ellipse cx="411.721" cy="358.207" fill="#31a7fb" rx="37.549" ry="9.503"/><g><g><g><g><path d="m400.301 282.116c-8.834.683-16.929-5.417-18.547-14.325-4.264-23.485-10.064-45.804-17.238-66.334-3.189-9.124 1.623-19.105 10.747-22.293 9.129-3.19 19.105 1.624 22.293 10.748 7.775 22.251 14.045 46.35 18.634 71.627 1.727 9.509-4.583 18.618-14.092 20.345-.601.109-1.201.186-1.797.232z" fill="#ffd496"/></g></g><g><g><path d="m402.1 281.884c-.6.11-1.2.19-1.8.23-1.91.15-3.79-.02-5.58-.47 4.44-3.92 6.78-10 5.64-16.25-4.59-25.28-10.86-49.38-18.63-71.63-2.02-5.77-6.76-9.82-12.28-11.2 1.65-1.46 3.6-2.63 5.81-3.4 9.13-3.19 19.11 1.62 22.3 10.75 7.77 22.25 14.04 46.35 18.63 71.62 1.73 9.51-4.58 18.62-14.09 20.35z" fill="#fcc16d"/></g></g></g></g></g></g><g><g><path d="m177.233 425.668h-50.725c-5.731 0-10.377-4.646-10.377-10.377v-59.608c0-19.738 16.001-35.74 35.74-35.74 19.738 0 35.74 16.001 35.74 35.74v59.608c0 5.73-4.647 10.377-10.378 10.377z" fill="#96756f"/><path d="m187.61 355.684v59.61c0 5.73-4.65 10.37-10.38 10.37h-22.36c5.73 0 10.38-4.64 10.38-10.37v-59.61c0-9.87-4-18.8-10.47-25.27-3.9-3.91-8.71-6.92-14.09-8.68 3.51-1.16 7.27-1.79 11.18-1.79 9.87 0 18.81 4 25.27 10.47 6.47 6.47 10.47 15.4 10.47 25.27z" fill="#80635e"/></g><g><path d="m129.925 425.668h-50.724c-5.731 0-10.377-4.646-10.377-10.377v-22.25c0-19.738 16.001-35.74 35.74-35.74 19.738 0 35.74 16.001 35.74 35.74v22.25c-.001 5.73-4.647 10.377-10.379 10.377z" fill="#d6a59d"/><path d="m140.3 393.044v22.25c0 5.73-4.64 10.37-10.37 10.37h-21.54c5.73 0 10.38-4.64 10.38-10.37v-22.25c0-9.87-4-18.8-10.47-25.27-4-4.01-8.96-7.07-14.5-8.82 3.4-1.07 7.01-1.65 10.76-1.65 9.87 0 18.8 4 25.27 10.47s10.47 15.4 10.47 25.27z" fill="#ac8380"/></g></g></g><g><path d="m476.728 282.23c2.067-23.678 8.769-63.317 30.259-92.504 3.556-4.831 3.237-11.315-.775-15.771-4.016-4.458-10.438-5.454-15.618-2.417-5.728 3.359-11.978 8.066-18.247 14.626 4.47-9.861 9.947-19.47 16.668-28.2 3.619-4.7 3.477-11.148-.347-15.682-3.823-4.535-10.157-5.764-15.399-2.99-5.084 2.689-10.543 6.276-16.108 11.047 6.915-19.315 15.76-36.051 26.465-49.955 3.872-5.028 3.72-11.928-.37-16.779-4.091-4.852-10.867-6.167-16.477-3.199-21.731 11.494-50.304 37.686-68.397 97.287-3.1-2.98-6.916-5.113-11.051-6.196 3.807-8.279 7.963-16.28 12.423-23.876 5.511-9.389 4.174-20.933-2.485-28.811 1.162-3.122.137-6.75-2.717-8.752-3.022-2.121-7.067-1.69-9.595.832-4.221-1.194-8.699-1.255-13.058-.121-6.463 1.681-11.885 5.779-15.265 11.538-3.972 6.765-7.813 13.938-11.42 21.318-1.817 3.722-.274 8.212 3.447 10.031 3.723 1.819 8.213.274 10.031-3.447 3.438-7.038 7.098-13.871 10.877-20.309 1.353-2.303 3.521-3.942 6.105-4.615 2.587-.672 5.278-.298 7.583 1.055 4.754 2.792 6.351 8.931 3.56 13.687-4.6 7.836-8.89 16.076-12.83 24.59-1.965-1.171-4.436-1.438-6.712-.495-3.826 1.586-5.643 5.974-4.057 9.8.417 1.007.829 2.021 1.241 3.033-2.455 2.172-4.479 4.829-5.945 7.87-2.9 6.016-3.283 12.8-1.08 19.103.276.79.536 1.6.808 2.396-.698 2.326-1.386 4.686-2.043 7.064-1.195 4.322-5.154 7.34-9.629 7.34-.897 0-1.797-.123-2.675-.366-2.574-.711-4.718-2.383-6.035-4.707-1.316-2.324-1.65-5.021-.938-7.596 2.652-9.595 5.747-19.172 9.197-28.465 1.441-3.883-.538-8.2-4.421-9.642-3.884-1.443-8.2.538-9.642 4.421-3.599 9.693-6.826 19.682-9.592 29.689-1.78 6.436-.946 13.18 2.347 18.99 2.16 3.81 5.22 6.9 8.878 9.091-1.592 7.688-2.858 14.994-3.856 21.8-9.736-.705-19.667-1.268-29.767-1.689 2.63-9.834 5.537-19.375 8.737-28.534 3.443-9.851.329-20.428-7.031-26.961.414-1.018.828-2.038 1.246-3.045 1.587-3.826-.229-8.214-4.055-9.801-3.829-1.589-8.215.229-9.801 4.055-.366.883-.729 1.777-1.092 2.669-.98-.115-1.963-.176-2.944-.174 6.007-18.108 13.855-33.801 23.407-46.775 3.805-5.168 3.463-12.107-.831-16.874-4.296-4.77-11.165-5.833-16.71-2.584-8.332 4.885-17.501 12.132-26.457 22.865 5.806-14.227 13.276-28.242 22.901-40.744 3.872-5.029 3.719-11.929-.372-16.779s-10.866-6.166-16.475-3.198c-12.386 6.552-30.293 19.863-46.29 46.257-1.262-5.524-2.593-10.979-4.006-16.311-1.868-7.055-6.372-12.96-12.68-16.627-4.766-2.771-10.134-4.011-15.518-3.646-.408-1.289-.817-2.577-1.228-3.832-1.287-3.936-5.521-6.085-9.46-4.796-3.937 1.288-6.084 5.523-4.796 9.46.452 1.383.903 2.797 1.352 4.223-3.102 2.221-5.73 5.089-7.704 8.486-3.667 6.31-4.657 13.67-2.788 20.725 3.196 12.064 5.938 24.634 8.226 37.6-5.667-6.021-11.737-11.14-18.176-15.332-.949-4.052-1.93-8.074-2.977-12.028-1.71-6.456-5.83-11.858-11.603-15.213-4.157-2.416-8.813-3.554-13.505-3.368-.295-.921-.59-1.845-.884-2.745-1.286-3.936-5.521-6.085-9.459-4.798s-6.086 5.522-4.799 9.459c.334 1.022.669 2.068 1.004 3.117-2.615 1.977-4.839 4.47-6.536 7.39-3.355 5.773-4.261 12.508-2.551 18.963.15.565.286 1.145.434 1.712-9.444 9.143-17.74 20.665-24.788 34.382-2.066-4.021-4.229-7.879-6.514-11.524-10.841-17.297-23.849-30.04-38.66-37.874-5.241-2.774-11.574-1.544-15.398 2.988-3.823 4.534-3.967 10.982-.348 15.683 6.723 8.73 12.201 18.34 16.672 28.204-6.27-6.562-12.522-11.271-18.251-14.631-5.178-3.037-11.601-2.044-15.616 2.416-4.014 4.456-4.332 10.941-.775 15.772 21.513 29.218 28.207 68.9 30.267 92.613-19.538 8.695-33.234 19.875-33.234 34.147 0 19.243 24.305 35.052 72.278 47.073-6.807 7.644-10.955 17.705-10.955 28.722v22.25c0 9.857 8.02 17.877 17.877 17.877h98.033c7.968 0 14.73-5.242 17.031-12.457 28.754 8.051 63.986 12.457 100.397 12.457 28.265 0 56.169-2.66 80.696-7.692 4.058-.833 6.673-4.797 5.84-8.854-.832-4.059-4.807-6.668-8.854-5.84-23.553 4.832-50.415 7.386-77.683 7.386-36.466 0-71.566-4.537-99.552-12.81v-9.567c0-4.142-3.357-7.5-7.5-7.5s-7.5 3.358-7.5 7.5v19.5c0 1.586-1.291 2.877-2.877 2.877h-29.684c.153-.939.253-1.896.253-2.877v-22.25c0-16.987-9.851-31.711-24.136-38.777.742-14.915 13.109-26.82 28.204-26.82 15.571 0 28.239 12.668 28.239 28.239v7.448c0 4.142 3.357 7.5 7.5 7.5s7.5-3.358 7.5-7.5v-7.448c0-21.918-16.397-40.066-37.565-42.855.062-8.179-.072-22.743-1.24-41.552 28.175-2.935 58.056-4.57 89.04-4.875-.938 4.495-1.842 9.016-2.672 13.589-1.194 6.57.243 13.212 4.046 18.702 2.165 3.126 4.951 5.663 8.16 7.49-5.969 31.936-8.438 57.576-9.394 70.398-.308 4.131 2.792 7.729 6.922 8.037.19.014.379.021.565.021 3.889 0 7.178-3.002 7.472-6.943.928-12.451 3.32-37.303 9.099-68.331 11.035-.976 20.279-9.181 22.324-20.44 1.343-7.394 2.856-14.653 4.502-21.789 10.731.414 21.275.986 31.588 1.723-2.321 22.02-1.779 36.189-1.74 37.086.172 4.03 3.492 7.179 7.487 7.179.106 0 .214-.002.32-.007 4.137-.174 7.351-3.669 7.179-7.806-.008-.209-.518-13.931 1.738-35.248 11.213.994 22.123 2.183 32.691 3.565 3.392 8.899 11.561 15.106 21.067 15.947 5.779 31.028 8.172 55.88 9.1 68.331.294 3.941 3.582 6.943 7.472 6.943.187 0 .376-.007.565-.021 4.13-.308 7.229-3.906 6.922-8.037-.956-12.823-3.425-38.463-9.394-70.398 2.584-1.471 4.89-3.405 6.822-5.734 54.39 11.21 78.815 26.347 78.815 36.59 0 6.979-11.52 15.631-30.815 23.145-10.992 4.281-18.042 14.793-17.962 26.73v.144c0 12.378-16.921 25.58-45.265 35.314-3.917 1.345-6.002 5.612-4.657 9.529 1.068 3.111 3.979 5.066 7.094 5.066.808 0 1.63-.131 2.437-.409 35.72-12.268 55.392-29.848 55.392-49.501v-.194c-.038-5.713 3.261-10.699 8.405-12.703 26.79-10.432 40.373-22.922 40.373-37.123 0-14.799-14.833-26.254-35.272-35.016zm-205.91-178.547c-23.608 34.043-33.771 75.909-38.145 105.873-.045.309-.064.616-.071.921-3.644 12.183-6.793 25.907-9.268 41.364-6.624.202-13.192.465-19.696.79 11.137-95.417 44.249-133.702 67.18-148.948zm-70.739 8.981c2.845 1.653 4.875 4.316 5.718 7.5 2.85 10.753 5.387 21.992 7.574 33.419-6.953 15.476-12.661 33.019-17.095 52.535-.19-.674-.344-1.361-.417-2.071-2.804-27.28-7.475-53.378-13.883-77.572-.843-3.182-.396-6.501 1.258-9.347 1.653-2.846 4.316-4.877 7.498-5.72 3.183-.845 6.504-.397 9.347 1.256zm-19.88 86.325c.252 2.193.51 4.381.737 6.591.82 7.971 5.098 15.099 11.528 19.601-1.586 9.076-2.928 18.52-4.021 28.329-1.404.092-2.805.187-4.203.286-4.042-24.899-10.74-47.22-19.95-66.421-.614-3.926-1.266-7.823-1.964-11.683 6.499 6.414 12.477 14.198 17.873 23.297zm-62.124 20.682c1.17 11.381 9.756 20.253 20.679 22.081.605 5.631 1.118 11.058 1.55 16.241-9.536 1.176-20.938 2.777-33.066 4.887 1.414-14.996 4.262-33.302 9.869-51.857.347 2.865.67 5.748.968 8.648zm21.973-75.276c5.937 22.409 10.258 46.531 12.844 71.697.273 2.657-.505 5.261-2.19 7.333-1.686 2.072-4.077 3.363-6.734 3.636-5.557.578-10.408-3.463-10.97-8.925-2.48-24.13-6.612-47.217-12.281-68.621-.685-2.582-.322-5.276 1.02-7.585 1.343-2.31 3.504-3.958 6.086-4.642.854-.226 1.719-.338 2.579-.338 1.742 0 3.462.459 5.007 1.357 2.307 1.344 3.954 3.505 4.639 6.088zm-29.283 28.215c.572 2.707 1.119 5.436 1.643 8.188-7.27 16.029-12.112 32.753-15.323 48.396-2.126-7.609-4.496-14.835-7.124-21.639 5.844-13.825 12.811-25.532 20.804-34.945zm-41.242 72.966c-3.525-24.076-11.439-57.161-29.192-85.243 17.206 13.653 39.328 43.041 49.441 105.869-4.825 1.003-9.677 2.085-14.492 3.256-1.669-8.286-3.581-15.915-5.684-22.952-.007-.307-.027-.617-.073-.93zm-46.732-52.201c14.128 12.77 29.351 36.375 37.964 79.934-4.439 1.284-8.784 2.65-12.982 4.103-2.547-25.277-9.096-56.927-24.982-84.037zm110.012 199.665v22.25c0 1.586-1.291 2.877-2.877 2.877h-6.773v-26.683c0-4.142-3.357-7.5-7.5-7.5s-7.5 3.358-7.5 7.5v26.683h-28.953c-1.586 0-2.877-1.291-2.877-2.877v-22.25c0-15.571 12.669-28.24 28.24-28.24s28.24 12.669 28.24 28.24zm-23.791-43.011c-1.463-.15-2.948-.228-4.45-.228-5.55 0-10.854 1.063-15.734 2.977-50.976-11.098-73.828-25.808-73.828-35.532 0-11.736 33.844-32.881 126.387-44.276 1.142 18.68 1.23 32.899 1.154 40.498-17.572 3.881-31.155 18.476-33.529 36.561zm44.611-110.299c3.341-1.574 6.314-3.888 8.714-6.838.615-.756 1.176-1.543 1.693-2.352 2.054 7.793 3.788 15.949 5.201 24.436-4.715.411-9.389.854-14.017 1.333-.445-5.297-.971-10.836-1.591-16.579zm84.976 11.755c10.787-64.411 33.404-95.102 53.001-109.681-10.345 15.861-18.556 34.797-24.471 56.419-2.43 2.544-4.329 5.583-5.524 9.004-4.91 14.051-9.226 28.821-12.909 44.144-3.378.023-6.744.061-10.097.114zm27.921 42.944c-.344-.027-.692-.072-1.036-.135-2.629-.477-4.913-1.949-6.435-4.145-1.521-2.196-2.096-4.852-1.618-7.48 4.52-24.892 10.688-48.609 18.335-70.494.882-2.522 2.691-4.55 5.096-5.709s5.12-1.313 7.643-.432 4.55 2.691 5.709 5.098c1.16 2.406 1.313 5.12.433 7.642-7.303 20.901-13.202 43.601-17.536 67.468-.923 5.063-5.469 8.573-10.591 8.187zm220.647-101.815c-15.9 27.139-22.446 58.831-24.989 84.1-4.231-1.426-8.588-2.76-13.007-4.009 8.607-43.659 23.851-67.305 37.996-80.091zm-17.558-33.013c-17.686 27.99-25.595 60.934-29.131 84.91-.054.366-.071.728-.072 1.088-2.141 7.145-4.085 14.898-5.777 23.334-3.586-.854-7.169-1.656-10.72-2.409.152-2.089.044-4.21-.34-6.325-.403-2.217-.835-4.414-1.263-6.613 10.855-54.86 31.411-81.334 47.303-93.985zm-2.584-61.92c-15.202 21.868-26.512 49.215-33.676 81.424-6.783 11.228-13.104 25.086-18.403 42.189-2.054-7.797-4.28-15.429-6.662-22.887 14.495-59.527 38.753-87.556 58.741-100.726zm-118.741 137.978c6.446-.445 12.349-3.378 16.602-7.959 2.746 9.811 5.186 19.955 7.327 30.354-8.906-1.099-18.039-2.067-27.374-2.9.909-6.129 2.041-12.658 3.445-19.495zm40.849 30.793c-4.334-23.868-10.233-46.567-17.536-67.47-.882-2.521-.729-5.234.432-7.641 1.16-2.406 3.188-4.216 5.709-5.098 1.088-.38 2.197-.56 3.289-.56 4.134 0 8.012 2.585 9.45 6.702 7.646 21.883 13.815 45.6 18.335 70.493.477 2.628-.098 5.285-1.619 7.481s-3.806 3.667-6.436 4.145c-.342.062-.69.107-1.034.134-5.11.384-9.67-3.124-10.59-8.186z"/><path d="m105.051 294.459h-8.816c-4.143 0-7.5 3.358-7.5 7.5s3.357 7.5 7.5 7.5h8.816c4.143 0 7.5-3.358 7.5-7.5s-3.358-7.5-7.5-7.5z"/><path d="m204.59 328.287c-4.143 0-7.5 3.358-7.5 7.5s3.357 7.5 7.5 7.5h8.816c4.143 0 7.5-3.358 7.5-7.5s-3.357-7.5-7.5-7.5z"/><path d="m291.685 384.479c-4.143 0-7.5 3.358-7.5 7.5s3.357 7.5 7.5 7.5h8.816c4.143 0 7.5-3.358 7.5-7.5s-3.357-7.5-7.5-7.5z"/><path d="m77.55 312.443h-8.816c-4.143 0-7.5 3.358-7.5 7.5s3.357 7.5 7.5 7.5h8.816c4.143 0 7.5-3.358 7.5-7.5s-3.358-7.5-7.5-7.5z"/><path d="m333.466 334.755h-8.816c-4.143 0-7.5 3.358-7.5 7.5s3.357 7.5 7.5 7.5h8.816c4.143 0 7.5-3.358 7.5-7.5s-3.358-7.5-7.5-7.5z"/><path d="m225.314 305.622c0-4.142-3.357-7.5-7.5-7.5h-24.027c-4.143 0-7.5 3.358-7.5 7.5s3.357 7.5 7.5 7.5h24.027c4.143 0 7.5-3.357 7.5-7.5z"/><path d="m375.598 355.393h-23.798c-4.143 0-7.5 3.358-7.5 7.5s3.357 7.5 7.5 7.5h23.798c4.143 0 7.5-3.358 7.5-7.5s-3.358-7.5-7.5-7.5z"/><path d="m151.522 353.289v7.354c0 4.142 3.357 7.5 7.5 7.5s7.5-3.358 7.5-7.5v-7.354c0-4.142-3.357-7.5-7.5-7.5s-7.5 3.358-7.5 7.5z"/><path d="m92.786 383.984c-4.143 0-7.5 3.358-7.5 7.5v8.154c0 4.142 3.357 7.5 7.5 7.5s7.5-3.358 7.5-7.5v-8.154c0-4.142-3.357-7.5-7.5-7.5z"/></g></g></svg>